<svg xmlns="http://www.w3.org/2000/svg" xmlns:xlink="http://www.w3.org/1999/xlink" id="Layer_1" x="0px" y="0px" viewBox="0 0 800 801" style="enable-background:new 0 0 800 801;" xml:space="preserve" width="800"  height="801" ><style type="text/css">	.st0{opacity:4.800000e-02;fill-rule:evenodd;clip-rule:evenodd;fill:#26A6F8;enable-background:new    ;}	.st1{filter:url(#a);}	.st2{fill-rule:evenodd;clip-rule:evenodd;}	.st3{fill-rule:evenodd;clip-rule:evenodd;fill:#D8D8D8;}	.st4{filter:url(#d);}	.st5{fill-rule:evenodd;clip-rule:evenodd;fill:#FFFFFF;}	.st6{filter:url(#Adobe_OpacityMaskFilter);}	.st7{mask:url(#e_1_);fill:none;stroke:#F2F2F2;stroke-linecap:square;}	.st8{filter:url(#Adobe_OpacityMaskFilter_1_);}	.st9{mask:url(#e_2_);fill-rule:evenodd;clip-rule:evenodd;fill:#F2F2F2;}	.st10{filter:url(#Adobe_OpacityMaskFilter_2_);}	.st11{mask:url(#e_3_);enable-background:new    ;}	.st12{fill:#848484;}	.st13{font-family:'Arial-BoldMT';}	.st14{font-size:14px;}	.st15{filter:url(#f);}	.st16{fill-rule:evenodd;clip-rule:evenodd;fill:#26A6F8;}	.st17{fill:#FFFFFF;}	.st18{font-family:'ArialMT';}	.st19{font-size:16px;}	.st20{filter:url(#h);}	.st21{fill:#D8D8D8;}	.st22{font-size:8px;}	.st23{filter:url(#j);}</style><filter filterUnits="objectBoundingBox" height="131%" id="j" width="131%" x="-17.1%" y="-13.9%">		<feGaussianBlur stdDeviation="3"/>	</filter><filter filterUnits="objectBoundingBox" height="117.2%" id="h" width="106.2%" x="-3.8%" y="-6.6%">		<feGaussianBlur stdDeviation="2.5"/>	</filter><filter filterUnits="objectBoundingBox" height="121%" id="f" width="106.2%" x="-3.8%" y="-8%">		<feGaussianBlur stdDeviation="2.5"/>	</filter><filter filterUnits="objectBoundingBox" height="101.4%" id="d" width="102.9%" x="-1.4%" y="-.5%">		<feGaussianBlur stdDeviation="1"/>	</filter><filter filterUnits="objectBoundingBox" height="104%" id="a" width="107.7%" x="-4.6%" y="-1.6%">		<feGaussianBlur stdDeviation="3"/>	</filter><g>	<path class="st0" d="M385.5,197.6C279.3,386.3,815,404.5,700.5,601.5c-114.5,197-336.4,168.9-349-58  C339,316.7,70.8,392.1,79.5,239.5S491.6,8.9,385.5,197.6z"/>	<g transform="translate(173 145)">		<g class="st1">			<path id="b_2_" class="st2" d="M155.6,0h197.3c17.7,0,32,14.3,32,32v438.7c0,17.7-14.3,32-32,32H155.6c-17.7,0-32-14.3-32-32V32    C123.6,14.3,137.9,0,155.6,0z"/>		</g>		<g>			<path id="b_1_" class="st3" d="M155.6,0h197.3c17.7,0,32,14.3,32,32v438.7c0,17.7-14.3,32-32,32H155.6c-17.7,0-32-14.3-32-32V32    C123.6,14.3,137.9,0,155.6,0z"/>		</g>		<g transform="translate(132.753 9.836)">			<g class="st4">				<path id="c_6_" class="st2" d="M26,0.4h191.8c14.4,0,26,11.6,26,26v432.4c0,14.4-11.6,26-26,26H26c-14.4,0-26-11.6-26-26V26.4     C0,12.1,11.6,0.4,26,0.4z"/>			</g>			<g>				<path id="c_2_" class="st5" d="M26,0.4h191.8c14.4,0,26,11.6,26,26v432.4c0,14.4-11.6,26-26,26H26c-14.4,0-26-11.6-26-26V26.4     C0,12.1,11.6,0.4,26,0.4z"/>			</g>			<defs>				<filter id="Adobe_OpacityMaskFilter" filterUnits="userSpaceOnUse" x="-1.3" y="424.5" width="246.4" height="1">									</filter>			</defs>			<mask maskUnits="userSpaceOnUse" x="-1.3" y="424.5" width="246.4" height="1" id="e_1_">				<g class="st6">					<path id="c_3_" class="st5" d="M26,0.4h191.8c14.4,0,26,11.6,26,26v432.4c0,14.4-11.6,26-26,26H26c-14.4,0-26-11.6-26-26V26.4      C0,12.1,11.6,0.4,26,0.4z"/>				</g>			</mask>			<path class="st7" d="M-0.8,425h245.4"/>			<defs>				<filter id="Adobe_OpacityMaskFilter_1_" filterUnits="userSpaceOnUse" x="-30.1" y="-8.4" width="305.6" height="69.5">									</filter>			</defs>			<mask maskUnits="userSpaceOnUse" x="-30.1" y="-8.4" width="305.6" height="69.5" id="e_2_">				<g class="st8">					<path id="c_4_" class="st5" d="M26,0.4h191.8c14.4,0,26,11.6,26,26v432.4c0,14.4-11.6,26-26,26H26c-14.4,0-26-11.6-26-26V26.4      C0,12.1,11.6,0.4,26,0.4z"/>				</g>			</mask>			<path class="st9" d="M-30.1-8.4h305.6v69.5H-30.1V-8.4z"/>			<defs>				<filter id="Adobe_OpacityMaskFilter_2_" filterUnits="userSpaceOnUse" x="77.8" y="26.5" width="56.2" height="17.3">									</filter>			</defs>			<mask maskUnits="userSpaceOnUse" x="77.8" y="26.5" width="56.2" height="17.3" id="e_3_">				<g class="st10">					<path id="c_5_" class="st5" d="M26,0.4h191.8c14.4,0,26,11.6,26,26v432.4c0,14.4-11.6,26-26,26H26c-14.4,0-26-11.6-26-26V26.4      C0,12.1,11.6,0.4,26,0.4z"/>				</g>			</mask>			<g class="st11">				<text transform="matrix(1 0 0 1 77.84 38.5)" class="st12 st13 st14">Dr. Mark</text>			</g>		</g>		<path class="st3" d="M227.3,85.2H282c1.5,0,2.7,1.2,2.7,2.7v0c0,1.5-1.2,2.7-2.7,2.7h-54.7c-1.5,0-2.7-1.2-2.7-2.7v0   C224.6,86.5,225.8,85.2,227.3,85.2z"/>		<g class="st15">			<path id="g_2_" class="st2" d="M103.1,106h235.5c11,0,20,9,20,20v41c0,11-9,20-20,20H83.1v-61C83.1,115,92.1,106,103.1,106z"/>		</g>		<g>			<path id="g_1_" class="st16" d="M103.1,106h235.5c11,0,20,9,20,20v41c0,11-9,20-20,20H83.1v-61C83.1,115,92.1,106,103.1,106z"/>		</g>		<text transform="matrix(1 0 0 1 96.221 131.036)" class="st17 st18 st19">Confirming your appointment for </text>		<text transform="matrix(1 0 0 1 96.221 150.036)" class="st17 st18 st19">2:30pm on Wednesday 7 October </text>		<text transform="matrix(1 0 0 1 96.221 169.036)" class="st17 st18 st19">with Dr. Mark.</text>		<g class="st20">			<path id="i_2_" class="st2" d="M103.1,198h235.5c11,0,20,9,20,20v59c0,11-9,20-20,20H83.1v-79C83.1,207,92.1,198,103.1,198z"/>		</g>		<g>			<path id="i_1_" class="st16" d="M103.1,198h235.5c11,0,20,9,20,20v59c0,11-9,20-20,20H83.1v-79C83.1,207,92.1,198,103.1,198z"/>		</g>		<text transform="matrix(1 0 0 1 96.221 223.022)" class="st17 st18 st19">A reminder for your appointment </text>		<text transform="matrix(1 0 0 1 96.221 242.022)" class="st17 st18 st19">tomorrow at 2:30pm with Dr. Mark. </text>		<text transform="matrix(1 0 0 1 96.221 261.022)" class="st17 st18 st19">Cancel or reschedule at </text>		<text transform="matrix(1 0 0 1 96.221 280.022)" class="st17 st18 st19" style="text-decoration: underline;">www.Edvak.com/xxxxx.</text>		<text transform="matrix(1 0 0 1 338.02 463.17)" class="st21 st18 st22">Send</text>		<path class="st21" d="M0,0"/>		<g class="st23">			<ellipse id="k_2_" class="st2" cx="30.6" cy="136.6" rx="30.6" ry="30.6"/>		</g>		<g>			<ellipse id="k_1_" class="st16" cx="30.6" cy="136.6" rx="30.6" ry="30.6"/>		</g>		<path class="st16" d="M0,0"/>	</g></g></svg>