<?xml version="1.0" encoding="UTF-8"?>
<svg width="177px" height="66px" viewBox="0 0 177 66" version="1.1" xmlns="http://www.w3.org/2000/svg" xmlns:xlink="http://www.w3.org/1999/xlink">
    <title>TRACFONE_PMS+072+&amp;+802</title>
    <g id="Page-1" stroke="none" stroke-width="1" fill="none" fill-rule="evenodd">
        <g id="TRACFONE_PMS+072+&amp;+802" fill-rule="nonzero">
            <path d="M174.564188,21.7488014 C174.653445,21.7607027 174.743015,21.7298775 174.813194,21.6631069 C174.860478,21.602462 174.885218,21.5216521 174.881809,21.4389828 C174.881809,21.2280424 174.776673,21.1212539 174.564188,21.1212539 L174.179059,21.1212539 L174.179059,21.7488014 L174.564188,21.7488014 Z M173.532751,20.4765675 L174.586322,20.4765675 C174.735303,20.4719934 174.883549,20.5029213 175.022359,20.5675355 C175.130273,20.6206967 175.229248,20.6966215 175.314525,20.7916596 C175.388516,20.8737682 175.445364,20.9753509 175.480529,21.0882945 C175.512601,21.184005 175.529849,21.285847 175.531437,21.3888845 C175.53075,21.558096 175.492574,21.7240923 175.420768,21.8700921 C175.345739,22.0257666 175.233673,22.1514686 175.09872,22.2313275 L175.697441,23.460055 L174.976984,23.460055 L174.450199,22.35921 L174.179059,22.35921 L174.179059,23.460055 L173.538285,23.460055 L173.538285,20.4765675 L173.532751,20.4765675 Z M174.5,24.2853591 C174.752596,24.2879939 175.002875,24.2278246 175.234843,24.1086965 C175.683638,23.8806624 176.03632,23.4467366 176.213159,22.9050182 C176.400574,22.3241123 176.400574,21.6810658 176.213159,21.1001599 C176.123344,20.8306624 175.991121,20.5840972 175.823603,20.373734 C175.477501,19.947597 175.001062,19.7069979 174.50332,19.7069979 C174.005578,19.7069979 173.52914,19.947597 173.183037,20.373734 C173.014503,20.5839201 172.881162,20.8304659 172.790161,21.1001599 C172.692582,21.3855656 172.643313,21.6911307 172.645185,21.9992931 C172.643077,22.309121 172.690786,22.6165642 172.785734,22.9050182 C173.061829,23.7438669 173.743675,24.2928946 174.5,24.2853591 M174.5,24.9986011 C174.161889,25.0027781 173.826656,24.924253 173.515044,24.7678851 C173.2187,24.6186041 172.950133,24.4008309 172.724866,24.1271538 C172.500194,23.8512212 172.32045,23.528022 172.194761,23.1739671 C171.93508,22.4218584 171.93508,21.5780461 172.194761,20.8259374 C172.320216,20.4729079 172.500011,20.150958 172.724866,19.8767058 C172.952186,19.6044717 173.221658,19.3873269 173.518364,19.2372929 C174.146994,18.9209024 174.856326,18.9209024 175.484956,19.2372929 C175.780018,19.3880656 176.047926,19.6051613 176.274027,19.8767058 C176.499917,20.1502279 176.680178,20.4723382 176.805239,20.8259374 C177.06492,21.5780461 177.06492,22.4218584 176.805239,23.1739671 C176.6796,23.529003 176.498595,23.8524432 176.271814,24.1271538 C176.044104,24.3997698 175.77428,24.6173429 175.477209,24.7678851 C175.16703,24.9239271 174.833373,25.0028843 174.49668,24.9999195" id="Shape" fill="#000F9F"></path>
            <path d="M24,19.4317501 L30.6302852,19.4317501 L30.871454,22.2707418 C31.4486099,21.5002999 32.2413749,20.7624759 33.2497488,20.0572697 C34.2581227,19.3520635 35.5633197,19 37.1653397,19.000699 C37.6872201,18.9947632 38.2088458,19.0266384 38.7261343,19.0960753 C39.1616409,19.1620626 39.5887456,19.2750238 40,19.4329888 L38.8955708,25.5445006 C38.0852836,25.3050705 37.2432264,25.1910374 36.3985468,25.2063484 C34.7643709,25.2063484 33.443096,25.6956162 32.4347221,26.6741517 C31.4263482,27.6526872 30.921749,29.0399781 30.9209245,30.8360244 L30.9209245,42 L24,42 L24,19.4317501 Z" id="Path" fill="#000F9F"></path>
            <path d="M53.3489736,32.3729013 C53.1888563,32.3407185 52.8858651,32.299871 52.4387683,32.2491212 C51.9305498,32.1969386 51.4198843,32.1725592 50.9090323,32.1760909 C48.9941935,32.1760909 47.6393548,32.4484071 46.8445161,32.9930396 C46.0496774,33.5376721 45.6518475,34.3100599 45.6510264,35.3102031 C45.6510264,37.1693803 46.7673314,38.0993815 48.9999413,38.1002067 C49.5444313,38.0997998 50.0852256,38.0103338 50.6011144,37.8353173 C51.1040856,37.6727037 51.5741501,37.4212021 51.9892082,37.0926366 C52.3966179,36.7645808 52.7320932,36.3553712 52.9745455,35.8907318 C53.2380922,35.3661279 53.3668118,34.7835814 53.3489736,34.1961822 L53.3489736,32.3729013 Z M53.3489736,40.2106575 C52.5625079,41.1226705 51.5699696,41.8319409 50.4545455,42.279023 C48.4112173,43.0845936 46.1664779,43.2189255 44.0424633,42.6627413 C43.1669169,42.4400354 42.3397623,42.0569206 41.602522,41.532629 C40.8265951,40.9729524 40.1890163,40.2415723 39.7390029,39.3949466 C39.2463343,38.4979534 39,37.3756805 39,36.0281278 C39,34.713583 39.2631672,33.5434485 39.7895015,32.517724 C40.3033984,31.5027375 41.0450988,30.6217432 41.9560117,29.9443356 C42.9445564,29.2231892 44.0574629,28.6922951 45.2384164,28.3785173 C46.5720416,28.0162485 47.9485931,27.8384301 49.3300293,27.8499763 C50.1265103,27.8499763 50.9316129,27.8660677 51.7453372,27.8982505 C52.5590616,27.9304333 53.0927859,27.978295 53.3465103,28.0418354 L53.3465103,27.5603308 C53.3624493,27.0480851 53.2384939,26.5412343 52.9880938,26.0947744 C52.7463911,25.691838 52.4197181,25.347061 52.031085,25.0847287 C51.6173268,24.8068942 51.1545346,24.6111088 50.6676246,24.5079135 C50.1324909,24.3929908 49.5865621,24.3365492 49.0393548,24.3395725 C47.5096188,24.3395725 46.2418182,24.5318443 45.2359531,24.9163878 C44.3353426,25.2474026 43.4763646,25.6831833 42.6765396,26.2148411 L39.8621701,21.9852749 C40.3853333,21.6041955 40.9280133,21.2509376 41.4879765,20.926955 C42.1723551,20.5382982 42.8915205,20.2150524 43.6360117,19.9614702 C44.5483889,19.6530873 45.4842789,19.4200203 46.4343695,19.2645883 C47.6132447,19.0779856 48.8054702,18.9898004 49.998827,19.0009366 C53.4130205,19.0009366 55.9334311,19.9222732 57.5600587,21.7649464 C59.1866862,23.6076195 60,26.0832216 60,29.1917526 L60,42.3260595 L53.5398827,42.3260595 L53.3489736,40.2106575 L53.3489736,40.2106575 Z" id="Shape" fill="#000F9F"></path>
            <path d="M82.9560765,39.2595605 C82.0385624,40.2795128 80.8286314,41.1593346 79.3262835,41.899026 C77.8239356,42.6387174 76.0462521,43.0056866 73.9932331,43 C72.1923677,43 70.5570291,42.7048787 69.0872171,42.1147693 C67.6724599,41.5606896 66.3888055,40.7122389 65.3195531,39.6244749 C64.2625422,38.5325454 63.4328077,37.2376596 62.8793561,35.816297 C62.2798463,34.2750061 61.9815267,32.6309576 62.0008852,30.9750167 C61.9775795,27.8078272 63.1961879,24.760127 65.3903188,22.4981531 C66.4717174,21.3958373 67.7612485,20.5242523 69.1823848,19.9351224 C70.7079455,19.3014459 72.3438831,18.9836754 73.9932331,19.0006456 C76.0145296,19.0006456 77.7682178,19.3359723 79.2542977,20.0066259 C80.6729532,20.629615 81.9483639,21.5430445 83,22.6892401 L78.8760672,27.1914951 C78.3382328,26.590388 77.7148463,26.073516 77.0263979,25.6578683 C76.2992192,25.2115878 75.3357481,24.9880366 74.1359846,24.9872147 C73.3716933,24.9741994 72.6155171,25.1471383 71.9312667,25.4914377 C71.2974953,25.8152368 70.7335191,26.2627414 70.2719327,26.8080884 C69.8069858,27.3645525 69.4531443,28.0067678 69.2299687,28.6992328 C68.9904883,29.4334408 68.8701769,30.2019697 68.8736999,30.9750167 C68.8751946,31.7158273 68.9955108,32.4514962 69.2299687,33.1534079 C69.4562031,33.8523662 69.8095766,34.5025122 70.2719327,35.0704415 C70.7316369,35.6303725 71.2953408,36.0939946 71.9312667,36.4351721 C72.6118054,36.7963103 73.3710468,36.9794108 74.1396449,36.9677499 C75.3068724,36.9677499 76.2866115,36.73598 77.0788621,36.27244 C77.7865983,35.8755778 78.4264065,35.3660543 78.973675,34.7634695 L82.9560765,39.2657246 L82.9560765,39.2595605 Z" id="Path" fill="#000F9F"></path>
            <path d="M124.481389,45.3810482 C123.993227,45.8731734 123.475332,46.3369442 122.930423,46.7699262 C119.823139,49.3390136 115.911596,50.8235942 111.825112,50.9848178 C109.033767,51.1605537 106.237177,50.7289736 103.641418,49.7218805 C100.980696,48.6613919 98.5707698,47.0896673 96.557899,45.1020956 L96.5505889,45.0938565 C96.4373236,44.9804935 96.2536449,44.9682909 96.1253828,45.0656081 C95.9852447,45.1698913 95.9585737,45.3639252 96.0656834,45.4999267 C96.9884715,46.652577 98.0388318,47.7043971 99.1980754,48.6366724 C106.582566,54.4002564 117.112781,54.4598614 124.566674,48.7802683 C125.754724,47.8558282 126.83342,46.8074179 127.783133,45.6541157 C127.783133,45.6541157 127.904968,45.5046348 128,45.3775172 L124.481389,45.3810482 Z" id="Path" fill="#38D430"></path>
            <path d="M134.444659,45.0037376 C132.311422,49.1248605 129.173842,52.616512 125.333978,55.1425488 C121.300778,57.7759931 116.638545,59.23514 111.851195,59.3622777 C106.989369,59.5317705 102.174353,58.3450311 97.9249724,55.9299325 C93.5979381,53.4589942 89.994453,49.8570467 87.4851918,45.4946065 C87.4415482,45.4118174 87.3579126,45.359063 87.2657896,45.3562155 C87.1736665,45.3533679 87.0870518,45.4008599 87.0385722,45.4808015 C86.9900927,45.5607431 86.9871136,45.6609894 87.0307571,45.7437786 L87.0307571,45.7437786 C88.1491296,48.0846949 89.5716492,50.2612717 91.2599311,52.2147771 C96.5148637,58.2340281 103.974883,61.7714374 111.874406,61.9897971 C117.197953,62.1317825 122.458576,60.7895377 127.089415,58.1076964 C129.415469,56.7590865 131.552227,55.096192 133.441727,53.1641226 C135.337429,51.2104713 136.966607,49.0054279 138.285365,46.6084057 L138.326899,46.524933 C138.581883,46.0312632 138.806679,45.5219796 139,45 L134.444659,45.0037376 Z" id="Path" fill="#38D430"></path>
            <path d="M108.17981,11.5487349 C109.508539,11.1616744 110.300069,11.1088934 111.90174,11.0455562 C114.73665,10.8740972 117.576328,11.3024385 120.214049,12.2993978 C122.925522,13.3560578 125.381012,14.9236338 127.430871,16.906591 L127.442036,16.906591 C127.556955,17.0193929 127.743571,17.0315604 127.87378,16.9347408 C128.015832,16.8296879 128.041849,16.6360571 127.93209,16.5007639 C126.990782,15.3558337 125.919492,14.311958 124.737434,13.3878589 C121.093081,10.5971416 116.559041,9.05107373 111.869483,9 C109.882973,9.00256848 107.906858,9.27109444 106,9.79757927 L108.181051,11.5487349 L108.17981,11.5487349 Z" id="Path" fill="#38D430"></path>
            <path d="M135.972263,15.6331785 L135.972263,15.6331785 C134.873269,13.3804552 133.470037,11.2873521 131.80142,9.41182276 C126.615865,3.63368212 119.264844,0.232984637 111.477598,0.00970449924 C106.223069,-0.126089091 101.030829,1.16543184 96.4601506,3.74515363 C94.8802196,4.63624581 93.3870763,5.67140391 92,6.83726209 C92.032547,6.82647985 92.0626832,6.81090549 92.0952302,6.80132127 C93.496994,6.33550446 94.9652276,6.0976314 96.4432744,6.09688122 C97.2052959,6.09804503 97.9662609,6.15329483 98.7203621,6.26220899 C102.574927,3.94099561 106.971072,2.65694102 111.476393,2.53634408 C116.275832,2.37272356 121.029111,3.51479105 125.2233,5.83930535 C129.491692,8.21715487 133.047407,11.6798717 135.526248,15.872784 C135.593142,15.9881584 135.738338,16.0325991 135.858951,15.9746163 C135.919651,15.9450457 135.965847,15.8924727 135.987155,15.8287143 C136.008464,15.764956 136.003098,15.6953617 135.972263,15.6355746" id="Path" fill="#38D430"></path>
            <path d="M87.6554882,25.3692834 L84,25.3692834 L84,20.0902634 L87.6554882,20.0902634 L87.6554882,18.9695239 C87.6554882,17.412674 87.9194819,16.0734784 88.4474694,14.9519372 C88.9320173,13.8905694 89.6451596,12.9425194 90.5387947,12.1717335 C91.4030465,11.4410719 92.408479,10.8851064 93.4963495,10.5363196 C94.5889901,10.1810414 95.7335957,10 96.8857815,10 C98.1379467,10.0052313 99.3834054,10.1780118 100.587056,10.5134719 C101.84295,10.8593995 103.007141,11.464838 104,12.288377 C103.519861,13.0050731 103.031061,13.7137525 102.533597,14.4144151 C102.036134,15.1150777 101.547746,15.8253605 101.068432,16.5452633 C100.584908,16.2017793 100.049257,15.9336093 99.4807573,15.750404 C98.9078773,15.561887 98.3073452,15.464829 97.7025121,15.463004 C96.7414099,15.463004 95.9721157,15.7588216 95.3946294,16.3504566 C94.8171431,16.9420916 94.5284,17.7838488 94.5284,18.8757281 L94.5284,20.0902634 L99.8656107,20.0902634 L99.8656107,25.3692834 L94.5284,25.3692834 L94.5284,42 L87.6554882,42 L87.6554882,25.3692834 Z" id="Path" fill="#000F9F"></path>
            <path d="M111.026557,37.0105971 C112.572308,37.0489073 114.046644,36.3580029 115.009917,35.143912 C115.471094,34.5678372 115.819508,33.9093664 116.036771,33.2032501 C116.480565,31.7517799 116.480565,30.200075 116.036771,28.7486048 C115.822502,28.0487194 115.47364,27.3977801 115.009917,26.8326018 C114.544813,26.2719611 113.9678,25.815406 113.316098,25.4923861 C112.602815,25.1466901 111.818489,24.974363 111.026557,24.9893428 C110.226525,24.9762192 109.434242,25.1483551 108.711222,25.4923861 C108.054016,25.806584 107.475248,26.264528 107.017404,26.8326018 C106.564903,27.4050731 106.217603,28.0538736 105.991778,28.7486048 C105.513555,30.1946898 105.513555,31.7571651 105.991778,33.2032501 C106.220643,33.9042237 106.567544,34.56062 107.017404,35.143912 C107.469312,35.7241826 108.0491,36.1913742 108.711222,36.5087868 C109.434329,36.8524348 110.226617,37.02415 111.026557,37.0105971 M99.001554,30.9765439 C98.9898047,29.3769528 99.2893837,27.7904549 99.8834695,26.3061325 C100.448725,24.8891722 101.283071,23.5960599 102.340059,22.4987855 C103.41716,21.3938327 104.707904,20.5215447 106.133032,19.9354843 C107.685064,19.2984781 109.348691,18.9806756 111.025329,19.0009088 C112.805537,19.0009088 114.427705,19.312434 115.891832,19.9354843 C117.307698,20.526056 118.589947,21.3979683 119.661468,22.4987855 C120.717647,23.5967049 121.551884,24.8896491 122.118057,26.3061325 C123.293981,29.3078685 123.293981,32.6452193 122.118057,35.6469553 C120.977912,38.5286961 118.734943,40.831678 115.890604,42.0410296 C114.351674,42.6940317 112.694747,43.0202083 111.024101,42.9990311 C109.345247,43.0186871 107.680202,42.6926409 106.131804,42.0410296 C104.708314,41.4401365 103.418756,40.5598468 102.33883,39.4518364 C101.281843,38.3545621 100.447497,37.0614497 99.8822412,35.6444894 C99.288277,34.1601313 98.9887026,32.5736577 99.0003257,30.974078" id="Shape" fill="#38D430"></path>
            <path d="M125,19.5266964 L131.641884,19.5266964 L131.835192,21.9701439 C132.625729,21.0374296 133.622408,20.2994894 134.747212,19.8140882 C135.933494,19.2751861 137.222659,18.9975061 138.526642,19 C141.126394,19 143.188352,19.7663952 144.712515,21.2991518 C146.236679,22.8319084 146.999174,25.099385 147,28.1015815 L147,42 L140.066914,42 L140.066914,29.0624324 C140.066914,27.8166565 139.753821,26.8266142 139.127633,26.0923053 C138.501446,25.3579965 137.627014,24.990431 136.504337,24.9896087 C135.808254,24.9743557 135.117476,25.1133908 134.482032,25.3966443 C133.929883,25.65071 133.437923,26.0180828 133.038414,26.4746722 C132.64813,26.9314037 132.353246,27.4610052 132.171004,28.0325088 C131.974551,28.6440039 131.876683,29.2826221 131.881041,29.924608 L131.881041,42 L125,42 L125,19.5266964 Z" id="Path" fill="#000F9F"></path>
            <path d="M164.685944,28.6305737 C164.682271,28.1303667 164.58785,27.6352926 164.407563,27.1709476 C164.216009,26.6646384 163.932098,26.2009474 163.571224,25.8050137 C163.175893,25.3725248 162.703251,25.0229831 162.179317,24.7756321 C161.551495,24.4896915 160.870093,24.3507582 160.184052,24.3688106 C159.482812,24.3537892 158.786463,24.4924491 158.140996,24.7756321 C157.593695,25.0181253 157.097086,25.3676881 156.678598,25.8050137 C156.305136,26.1999673 156.006137,26.6631575 155.796858,27.1709476 C155.602431,27.6316613 155.50003,28.1280957 155.495776,28.6305737 L164.685944,28.6305737 Z M170.540315,39.7898099 C170.290609,39.9500729 169.92023,40.2126577 169.425595,40.578797 C168.82266,41.0080939 168.177008,41.3697097 167.499627,41.6574903 C166.590336,42.0492641 165.650723,42.3614388 164.690723,42.5907141 C163.473318,42.8776331 162.227238,43.0146072 160.978574,42.9987683 C159.121105,42.9987683 157.448428,42.7033091 155.960541,42.1123907 C154.547992,41.5692623 153.259981,40.7297165 152.177901,39.646806 C151.128826,38.5710809 150.320935,37.2712342 149.811062,35.8387105 C149.255583,34.2663875 148.981122,32.6031372 149.001008,30.9297314 C148.997391,29.3864541 149.257032,27.8545621 149.76805,26.4041508 C150.251647,24.9969139 151.000878,23.7025889 151.9724,22.5960552 C152.963525,21.4868023 154.164222,20.5986315 155.500555,19.9862339 C156.89286,19.3287446 158.470752,19 160.234232,19 C161.997712,19 163.544939,19.3188823 164.875913,19.9566469 C166.174963,20.5745511 167.323374,21.4848584 168.2368,22.6207111 C169.183718,23.8195103 169.886339,25.203222 170.302556,26.6889258 C170.781705,28.3761025 171.016427,30.127114 170.999107,31.8851455 L170.999107,33.0353407 L155.496971,33.0353407 C155.527238,34.2475865 156.044972,35.3090207 157.050171,36.2196433 C158.055371,37.1302659 159.440507,37.5859881 161.20558,37.58681 C162.937996,37.58681 164.345833,37.3234034 165.429091,36.7965901 C166.512349,36.2697769 167.301295,35.8148765 167.79593,35.431889 L170.535536,39.7898099 L170.540315,39.7898099 Z" id="Shape" fill="#000F9F"></path>
            <polygon id="Path" fill="#000F9F" points="10.0033999 16.3809818 0 16.3809818 0 10 27 10 27 16.3809818 17.0430943 16.3809818 17.0430943 42 10.0033999 42 10.0033999 16.3809818"></polygon>
            <polygon id="Path" fill="#000F9F" points="10 49 11.4721879 49 13.6266996 52.8880478 13.6266996 49 15 49 15 55 13.5290482 55 11.3745365 51.1167331 11.3745365 55 10 55"></polygon>
            <path d="M16,52.0033911 C16,50.3903542 17.3049963,49 19.498695,49 C21.6923937,49 23,50.3869631 23,52 C23,53.6130369 21.6950037,55 19.498695,55 C17.3023863,55 16,53.616428 16,52.0033911 Z M21.4196495,52.0033911 C21.4196495,51.014318 20.7449664,50.1789751 19.5,50.1789751 C18.2550336,50.1789751 17.5725205,51.014318 17.5816555,52.0033911 C17.5907905,52.9924642 18.2458986,53.8278071 19.5,53.8278071 C20.7541014,53.8278071 21.4183445,52.9924642 21.4183445,52.0033911 L21.4196495,52.0033911 Z" id="Shape" fill="#000F9F"></path>
            <polygon id="Path" fill="#000F9F" points="24 49 25.4761841 49 26.7440797 52.9860558 27.9550592 49 29.0449408 49 30.2559203 52.9860558 31.5238159 49 33 49 30.8553552 55 29.7085576 55 28.497578 51.2278884 27.2865985 55 26.1410118 55"></polygon>
            <polygon id="Path" fill="#000F9F" points="42 49 38.768232 55 37.0919714 55 38.3085912 52.7374502 36 49 37.7502705 49 39.1382818 51.3653386 40.3393205 49"></polygon>
            <path d="M42,52 C42,50.3869631 43.3049963,49 45.5,49 C47.6950037,49 49,50.3869631 49,52 C49,53.6130369 47.6950037,55 45.5,55 C43.3049963,55 42,53.6130369 42,52 Z M47.4183445,52 C47.4183445,51.0109269 46.7449664,50.175584 45.5,50.175584 C44.2550336,50.175584 43.5725205,51.0109269 43.5816555,52 C43.5907905,52.9890731 44.2458986,53.824416 45.5,53.824416 C46.7541014,53.824416 47.4183445,52.9890731 47.4183445,52 Z" id="Shape" fill="#000F9F"></path>
            <path d="M50,52.8687124 L50,49 L51.4252221,49 L51.4252221,52.790639 C51.4252221,53.4583414 51.8497038,53.8393863 52.4950642,53.8393863 C53.1404245,53.8393863 53.5661402,53.4630025 53.5661402,52.790639 L53.5661402,49 L55,49 L55,52.8687124 C55,54.2309186 54.0128332,55 52.4950642,55 C50.9772952,55 50,54.2309186 50,52.8687124 Z" id="Path" fill="#000F9F"></path>
            <path d="M58,50.3055176 C58,51.3582777 57.4278584,52 56.3693963,52 C56.2490389,51.9999068 56.1289163,51.9896156 56.0103774,51.9692421 L56.0103774,51.4281821 C56.135946,51.4450254 56.262736,51.4515727 56.3894213,51.4477553 C56.6376634,51.4593111 56.8794753,51.3685216 57.0559663,51.1974976 C57.210964,51.0434442 57.3056391,50.8410451 57.3234425,50.6256797 C57.2014416,50.7371624 57.0382216,50.7952222 56.8714506,50.7864598 C56.3593838,50.7864598 56.000365,50.4145684 56.000365,49.8930817 C55.9932685,49.6510096 56.0899319,49.4170414 56.2670159,49.2476687 C56.4440999,49.0782961 56.6855093,48.9889132 56.9329558,49.0011017 C57.4664779,49.006694 58,49.4121395 58,50.3055176 Z" id="Path" fill="#000F9F"></path>
            <path d="M62.8065008,53.0972112 L63.9276282,55 L62.2516506,55 L61.249873,53.3374502 L60.4753682,53.3374502 L60.4753682,55 L59,55 L59,49 L61.7145759,49 C63.0439309,49 64,49.9083665 64,51.1681275 C64,52.0430279 63.5352971,52.7541833 62.8065008,53.0972112 Z M60.4753682,52.2055777 L61.4911122,52.2055777 C62.0840528,52.2055777 62.5068563,51.7681275 62.5068563,51.1681275 C62.5068563,50.5681275 62.0789741,50.1306773 61.4911122,50.1306773 L60.4753682,50.1306773 L60.4753682,52.2055777 Z" id="Shape" fill="#000F9F"></path>
            <polygon id="Path" fill="#000F9F" points="66 49 70 49 70 50.1139442 67.5100977 50.1139442 67.5100977 51.476494 69.9960912 51.476494 69.9960912 52.5653386 67.5100977 52.5653386 67.5100977 53.8860558 69.9960912 53.8860558 69.9960912 55 66 55"></polygon>
            <polygon id="Path" fill="#000F9F" points="10 60 11 60 11 66 10 66"></polygon>
            <polygon id="Path" fill="#000F9F" points="13 60 14.4709518 60 16.6254635 63.8824935 16.6254635 60 18 60 18 66 16.5278121 66 14.3733004 62.1175065 14.3733004 66 13 66"></polygon>
            <path d="M22,63.0005653 C22,61.2560769 23.1942966,60 25.0798479,60 C26.756654,60 27.8448669,60.8841153 28,62.2215941 L26.5901141,62.2215941 C26.4418251,61.580554 25.9057034,61.1758055 25.0844106,61.1758055 C24.0041825,61.1758055 23.3825095,61.8892029 23.3825095,63.0005653 C23.3825095,64.1119276 24.0041825,64.8241945 25.0844106,64.8241945 C25.9022814,64.8241945 26.4418251,64.419446 26.5901141,63.7784059 L27.9965779,63.7784059 C27.8414449,65.1158847 26.7532319,66 25.0764259,66 C23.1942966,66 22,64.7427925 22,63.0005653 Z" id="Path" fill="#000F9F"></path>
            <path d="M29,63.0005653 C29,61.3860938 30.304753,60 32.5006524,60 C34.6965517,60 36,61.3860938 36,63.0005653 C36,64.6150367 34.695247,66 32.5006524,66 C30.3060578,66 29,64.6139062 29,63.0005653 Z M34.4186393,63.0005653 C34.4186393,62.0101752 33.744082,61.1758055 32.5006524,61.1758055 C31.2572227,61.1758055 30.5722274,62.0101752 30.5813607,63.0005653 C30.5904939,63.9909553 31.2467847,64.8241945 32.5006524,64.8241945 C33.75452,64.8241945 34.4186393,63.9886942 34.4186393,63.0005653 Z" id="Shape" fill="#000F9F"></path>
            <polygon id="Path" fill="#000F9F" points="37 60 38.4721879 60 40.6254635 63.8824935 40.6254635 60 42 60 42 66 40.5290482 66 38.3745365 62.1175065 38.3745365 66 37 66"></polygon>
            <polygon id="Path" fill="#000F9F" points="44.7581716 61.2344155 43 61.2344155 43 60 48 60 48 61.2344155 46.2316139 61.2344155 46.2316139 66 44.7581716 66"></polygon>
            <path d="M52.8023837,64.0975901 L53.9225247,66 L52.2524731,66 L51.2504422,64.3365863 L50.4757414,64.3365863 L50.4757414,66 L49,66 L49,60 L51.7139926,60 C53.0449539,60 54,60.9081856 54,62.1688907 C54.0012648,63.0424218 53.5364444,63.7546306 52.8023837,64.0975901 Z M50.4706614,63.2061342 L51.4866624,63.2061342 C52.078483,63.2061342 52.5026634,62.7687712 52.5026634,62.1688907 C52.5026634,61.5690102 52.074673,61.1316471 51.4866624,61.1316471 L50.4706614,61.1316471 L50.4706614,63.2061342 Z" id="Shape" fill="#000F9F"></path>
            <path d="M55,63.0005653 C55,61.3860938 56.304753,60 58.5006524,60 C60.6965517,60 62,61.3860938 62,63.0005653 C62,64.6150367 60.695247,66 58.5006524,66 C56.3060578,66 55,64.6139062 55,63.0005653 Z M60.4186393,63.0005653 C60.4186393,62.0101752 59.7453868,61.1758055 58.5006524,61.1758055 C57.255918,61.1758055 56.5722274,62.0101752 56.5826654,63.0005653 C56.5722274,63.9886942 57.2467847,64.8241945 58.5006524,64.8241945 C59.75452,64.8241945 60.4186393,63.9886942 60.4186393,63.0005653 Z" id="Shape" fill="#000F9F"></path>
            <polygon id="Path" fill="#000F9F" points="63 60 64.5355137 60 64.5355137 64.7655845 67 64.7655845 67 66 63 66"></polygon>
        </g>
    </g>
</svg>