<?xml version="1.0" standalone="no"?>
<!DOCTYPE svg PUBLIC "-//W3C//DTD SVG 20010904//EN"
 "http://www.w3.org/TR/2001/REC-SVG-20010904/DTD/svg10.dtd">
<svg version="1.0" xmlns="http://www.w3.org/2000/svg"
 width="1086.000000pt" height="304.000000pt" viewBox="0 0 1086.000000 304.000000"
 preserveAspectRatio="xMidYMid meet">

<g transform="translate(0.000000,304.000000) scale(0.100000,-0.100000)"
fill="#000000" stroke="none">
<path fill="#17469d" d="M256 3003 c-96 -29 -169 -94 -215 -193 l-26 -55 0 -1235 0 -1235 33
-67 c75 -152 229 -218 391 -169 98 30 165 86 211 175 l35 69 3 503 3 504 179
0 180 0 0 -484 c0 -457 1 -487 20 -549 26 -84 96 -164 178 -204 48 -24 69 -28
137 -28 66 1 90 5 140 28 76 35 146 109 177 185 l23 57 0 1220 0 1220 -23 56
c-32 80 -90 142 -170 181 -58 29 -76 33 -147 33 -66 0 -90 -5 -135 -26 -74
-35 -126 -89 -164 -168 l-31 -66 -3 -472 -3 -473 -179 0 -179 0 -3 473 -3 472
-26 55 c-49 106 -128 171 -238 196 -71 17 -103 17 -165 -3z"/>
<path fill="#17469d" d="M6695 2290 c-269 -39 -490 -231 -541 -469 -18 -85 -18 -133 1 -204
30 -117 96 -178 213 -198 117 -21 235 27 287 116 19 31 30 68 35 118 10 88 23
123 58 160 53 56 131 56 183 1 21 -22 24 -38 30 -147 6 -132 1 -177 -28 -216
-23 -29 -16 -26 -353 -183 -246 -114 -269 -127 -326 -183 -36 -36 -72 -84 -90
-120 -28 -58 -29 -67 -37 -269 -9 -245 0 -315 58 -434 82 -165 231 -252 433
-252 160 0 293 50 352 132 17 22 30 47 30 55 0 31 27 9 38 -31 26 -97 111
-148 249 -149 74 -1 88 2 150 33 45 23 78 49 100 78 64 84 63 71 63 862 0 681
-1 721 -20 794 -31 121 -82 209 -174 301 -82 82 -163 131 -279 169 -120 40
-303 55 -432 36z m260 -1521 c0 -205 -2 -227 -20 -256 -28 -47 -74 -66 -151
-61 -54 3 -68 9 -94 33 -39 38 -50 79 -50 198 0 145 20 173 186 253 52 25 97
50 100 56 3 5 11 7 17 5 9 -3 12 -67 12 -228z"/>
<path fill="#17469d" d="M9905 2285 c-237 -44 -458 -241 -505 -449 -18 -82 -14 -195 10 -258
22 -61 78 -120 134 -143 57 -24 139 -28 198 -11 121 35 172 97 192 233 8 50
21 104 30 121 52 100 179 105 226 8 16 -34 20 -62 20 -147 0 -123 -10 -166
-47 -201 -16 -14 -152 -83 -303 -153 -289 -133 -345 -167 -404 -245 -76 -100
-81 -119 -84 -368 -4 -250 2 -295 53 -401 84 -174 232 -261 445 -261 179 0
308 58 361 162 24 46 42 45 50 -3 12 -78 80 -131 190 -148 119 -19 228 16 298
95 74 84 71 51 71 873 0 709 -1 739 -20 810 -67 241 -246 406 -512 472 -111
27 -296 33 -403 14z m301 -1312 c4 -14 4 -114 0 -222 -8 -222 -16 -254 -76
-283 -48 -25 -136 -24 -177 2 -51 31 -66 71 -71 191 -4 93 -2 110 17 147 12
23 33 50 48 59 31 21 235 131 245 132 4 1 11 -11 14 -26z"/>
<path fill="#17469d" d="M2148 2277 c-87 -25 -162 -91 -202 -177 -21 -44 -21 -57 -24 -849 -2
-520 1 -823 8 -860 34 -185 182 -317 401 -355 72 -12 95 -13 161 -1 139 24
205 53 279 122 l48 45 14 -29 c46 -87 141 -135 277 -141 121 -5 188 17 248 82
75 81 72 41 72 1032 0 867 0 884 -21 938 -42 113 -148 188 -277 194 -66 4 -79
1 -137 -27 -69 -34 -121 -88 -152 -157 -17 -36 -18 -98 -23 -759 l-5 -720 -22
-31 c-58 -81 -194 -70 -246 21 -9 14 -13 220 -17 735 l-5 715 -23 51 c-60 133
-218 209 -354 171z"/>
<path fill="#17469d" d="M3831 2280 c-89 -19 -163 -80 -205 -170 -21 -45 -21 -50 -21 -955 l0
-910 27 -50 c33 -63 68 -96 138 -131 72 -37 181 -40 251 -7 60 27 123 84 157
142 l27 46 5 680 c4 578 7 684 20 709 46 88 162 93 217 9 17 -25 18 -80 23
-713 l5 -685 23 -47 c43 -87 139 -153 241 -165 136 -16 305 96 341 226 6 22
10 282 10 686 0 599 1 653 18 684 26 52 60 72 120 73 61 0 94 -18 119 -65 17
-29 18 -86 23 -712 l5 -680 23 -47 c28 -56 88 -113 151 -141 69 -32 178 -30
251 4 71 33 123 79 158 138 l27 46 3 810 c2 559 -1 826 -9 862 -25 124 -117
251 -217 302 -100 51 -268 66 -387 36 -132 -34 -240 -115 -286 -214 -13 -28
-26 -50 -29 -51 -3 0 -20 29 -38 65 -80 154 -221 222 -440 213 -90 -3 -106 -7
-175 -41 -80 -39 -132 -89 -169 -162 l-21 -39 -33 66 c-19 37 -50 84 -71 104
-69 69 -185 104 -282 84z"/>
<path fill="#17469d" d="M7932 2249 c-65 -32 -99 -66 -135 -133 l-22 -41 -3 -915 -2 -915 30
-62 c30 -60 88 -115 145 -138 72 -28 184 -21 258 17 54 27 124 94 150 143 22
40 22 46 27 730 4 528 8 695 18 712 21 37 53 53 107 53 58 0 87 -16 113 -63
16 -29 17 -90 22 -717 l5 -685 27 -46 c124 -210 425 -216 546 -11 l27 47 3
820 c3 885 4 882 -50 988 -70 139 -183 215 -354 237 -193 25 -387 -66 -440
-206 l-18 -46 -37 74 c-66 132 -154 188 -294 188 -49 0 -75 -6 -123 -31z"/>
</g>
</svg>
