<?xml version="1.0" standalone="no"?>
<!DOCTYPE svg PUBLIC "-//W3C//DTD SVG 20010904//EN"
 "http://www.w3.org/TR/2001/REC-SVG-20010904/DTD/svg10.dtd">
<svg version="1.0" xmlns="http://www.w3.org/2000/svg"
 width="165.000000pt" height="56.000000pt" viewBox="0 0 165.000000 56.000000"
 preserveAspectRatio="xMidYMid meet">

<g transform="translate(0.000000,56.000000) scale(0.100000,-0.100000)"
fill="#000000" stroke="none">
<path fill="#17469d" d="M747 522 c-23 -25 -21 -78 3 -102 61 -61 154 27 104 98 -20 28 -83
31 -107 4z"/>
<path fill="#17469d" d="M744 373 l-71 -4 -33 -79 c-19 -44 -37 -80 -40 -80 -4 0 -23 36 -43
80 l-36 80 -50 0 -51 0 0 -170 0 -170 40 0 40 0 0 112 c0 61 3 108 7 104 4 -4
19 -35 33 -69 23 -54 30 -62 56 -65 27 -3 31 1 59 70 l30 73 3 -112 3 -113 39
0 40 0 0 90 c0 89 0 90 25 90 25 0 25 -1 25 -90 l0 -90 35 0 35 0 0 117 c0 64
3 113 7 110 4 -4 18 -35 33 -70 24 -58 28 -62 59 -62 31 0 34 4 58 60 14 33
29 64 34 69 5 6 9 -37 9 -107 l0 -117 40 0 40 0 0 176 0 175 -51 -3 -51 -3
-36 -82 c-19 -46 -38 -83 -41 -83 -3 0 -22 37 -42 83 l-35 82 -50 1 c-27 0
-81 -1 -120 -3z"/>
<path fill="#17469d" d="M1323 360 c-46 -27 -73 -86 -73 -157 0 -114 57 -173 166 -173 90 0
114 13 114 62 l0 39 -27 -19 c-41 -28 -72 -33 -110 -17 -84 35 -82 185 3 221
35 15 39 14 85 -9 l49 -24 0 37 c0 30 -5 39 -25 48 -42 19 -145 15 -182 -8z"/>
<path fill="#17469d" d="M40 236 c0 -130 1 -136 26 -165 31 -37 89 -55 150 -45 93 14 114 56
114 232 l0 112 -39 0 -39 0 -4 -126 c-3 -118 -4 -127 -27 -145 -30 -24 -56
-24 -81 1 -18 18 -20 33 -20 145 l0 125 -40 0 -40 0 0 -134z"/>
</g>
</svg>
