<?xml version="1.0" encoding="utf-8"?>
<!-- Generator: Adobe Illustrator 24.3.0, SVG Export Plug-In . SVG Version: 6.00 Build 0)  -->
<svg version="1.1" id="Layer_1" xmlns="http://www.w3.org/2000/svg" xmlns:xlink="http://www.w3.org/1999/xlink" x="0px" y="0px"
	 viewBox="0 0 29 29" style="enable-background:new 0 0 29 29;" xml:space="preserve">
<style type="text/css">
	.st0{display:none;}
	.st1{display:inline;}
	.st2{fill:none;stroke:#6F777C;stroke-miterlimit:10;}
	.st3{fill:#11809F;}
</style>
<g id="Layer_2_1_">
	<g id="Products_default">
		<g id="Menus" class="st0">
			<g id="Standard-Menu" class="st1">
				<g id="Left-Nav">
					<g id="Products">
						<g id="Products-icon">
							<path id="Page-1" class="st2" d="M6.1,22.9h16.8V6.1H6.1V22.9z M23.8,15.4h1.9v-1.9h-1.9V15.4z M23.8,21h1.9v-1.9h-1.9V21z
								 M19.2,25.7H21v-1.9h-1.8V25.7z M13.6,25.7h1.9v-1.9h-1.9V25.7z M8,25.7h1.8v-1.9H8V25.7z M3.3,20.9h1.9v-1.9H3.3V20.9z
								 M3.3,15.4h1.9v-1.9H3.3V15.4z M3.3,9.8h1.9V8H3.3V9.8z M8,5.2h1.8V3.3H8V5.2z M13.6,5.2h1.9V3.3h-1.9L13.6,5.2z M19.2,5.2
								H21V3.3h-1.8L19.2,5.2z M23.9,9.8h1.8V8h-1.9L23.9,9.8z M25.7,10.8c0.5,0,0.9-0.4,0.9-0.9c0,0,0,0,0,0V9.3h1.8V8.4h-1.9V8
								c0-0.5-0.3-1-0.9-1c0,0,0,0-0.1,0h-1.9V6.1c0-0.5-0.4-0.9-0.9-0.9c0,0,0,0,0,0H22V3.3c0-0.5-0.4-0.9-0.9-0.9c0,0,0,0-0.1,0
								h-0.5V0.5h-0.9v1.9h-0.4c-0.5,0-0.9,0.4-0.9,0.9c0,0,0,0,0,0v1.9h-1.8V3.3c0-0.5-0.4-0.9-0.9-0.9c0,0,0,0,0,0h-0.5V0.5H14
								v1.9h-0.4c-0.5,0-0.9,0.4-0.9,0.9c0,0,0,0,0,0v1.9h-1.9V3.3c0-0.5-0.4-0.9-0.9-0.9c0,0,0,0,0,0H9.3V0.5H8.4v1.9H8
								c-0.5,0-1,0.3-1,0.9c0,0,0,0,0,0.1v1.9H6.1c-0.5,0-0.9,0.4-0.9,0.9c0,0,0,0,0,0V7H3.3C2.8,7,2.4,7.4,2.4,7.9c0,0,0,0,0,0.1
								v0.5H0.5v0.9h1.9v0.4c0,0.5,0.4,0.9,0.9,0.9c0,0,0,0,0,0h1.9v1.9H3.3c-0.5,0-0.9,0.4-0.9,0.9c0,0,0,0,0,0v0.5H0.5V15h1.9v0.4
								c0,0.5,0.4,0.9,0.9,0.9c0,0,0,0,0,0h1.9v1.8H3.3c-0.5,0-0.9,0.4-0.9,0.9l0,0v0.5H0.5v0.9h1.9v0.4c0,0.5,0.4,0.9,0.9,0.9
								c0,0,0,0,0,0h1.9v1c0,0.5,0.4,0.9,0.9,0.9c0,0,0,0,0,0H7v1.9c0,0.5,0.4,0.9,0.9,0.9c0,0,0,0,0,0h0.5v1.9h0.9v-1.9h0.4
								c0.5,0,0.9-0.4,0.9-0.9c0,0,0,0,0,0v-1.9h1.9v1.9c0,0.5,0.4,0.9,0.9,0.9c0,0,0,0,0,0h0.5v1.9H15v-1.9h0.4
								c0.5,0,0.9-0.4,0.9-0.9c0,0,0,0,0,0v-1.9h1.9v1.9c0,0.5,0.4,0.9,0.9,0.9c0,0,0,0,0,0h0.5v1.9h0.9v-1.9H21c0.5,0,1-0.3,1-0.9
								c0,0,0,0,0-0.1v-1.9h0.9c0.5,0,0.9-0.4,0.9-0.9c0,0,0,0,0,0V22h1.8c0.5,0,0.9-0.4,0.9-0.9c0,0,0,0,0,0v-0.5h1.9v-0.9h-1.9
								v-0.4c0-0.5-0.4-0.9-0.9-0.9c0,0,0,0,0,0h-1.9v-1.9h1.9c0.5,0,0.9-0.4,0.9-0.9c0,0,0,0,0,0v-0.5h1.9V14h-1.9v-0.4
								c0-0.5-0.4-0.9-0.9-0.9c0,0,0,0,0,0h-1.9v-1.9L25.7,10.8z"/>
						</g>
					</g>
				</g>
			</g>
		</g>
		<path class="st3" d="M26.1,10.6c0.5,0,1-0.4,1-1V9.1H29v-1h-1.9V7.7c0-0.5-0.4-1-1-1h-1.9v-1c0-0.5-0.4-1-1-1h-1V2.9
			c0-0.5-0.4-1-1-1h-0.5V0h-1v1.9h-0.4c-0.5,0-1,0.4-1,1v1.9h-1.9V2.9c0-0.5-0.4-1-1-1H15V0h-1v1.9h-0.4c-0.5,0-1,0.4-1,1v1.9h-1.9
			V2.9c0-0.5-0.4-1-1-1H9.2V0h-1v1.9H7.8c-0.5,0-1,0.4-1,1v1.9h-1c-0.5,0-1,0.4-1,1v1H3c-0.5,0-1,0.4-1,1v0.5H0.1v1h1.9v0.4
			c0,0.5,0.4,1,1,1h1.9v1.9H3c-0.5,0-1,0.4-1,1V14H0.1v1h1.9v0.4c0,0.5,0.4,1,1,1h1.9v1.8H3c-0.5,0-1,0.4-1,1v0.5H0.1v1h1.9v0.4
			c0,0.5,0.4,1,1,1h1.9v1.1c0,0.5,0.4,1,1,1h1V26c0,0.5,0.4,1,1,1h0.5v1.9h1V27h0.4c0.5,0,1-0.4,1-1v-1.9h1.9V26c0,0.5,0.4,1,1,1
			h0.5v1.9h1V27h0.4c0.5,0,1-0.4,1-1v-1.9h1.9V26c0,0.5,0.4,1,1,1h0.5v1.9h1V27h0.4c0.5,0,1-0.4,1-1v-1.9h1c0.5,0,1-0.4,1-1v-1h1.9
			c0.5,0,1-0.4,1-1v-0.5H29v-1h-1.9v-0.4c0-0.5-0.4-1-1-1h-1.9v-1.9h1.9c0.5,0,1-0.4,1-1v-0.5H29v-1h-1.9v-0.4c0-0.5-0.4-1-1-1h-1.9
			v-1.9H26.1z M26.1,7.7v1.9h-1.9V7.7H26.1z M19.4,2.9h1.9v1.9h-1.9V2.9z M13.6,2.9h1.9v1.9h-1.9V2.9z M7.8,2.9h1.9v1.9H7.8V2.9z
			 M3,9.6V7.7h1.9v1.9H3z M3,15.4v-1.9h1.9v1.9H3z M3,21.1v-1.9h1.9v1.9H3z M9.8,26H7.8v-1.9h1.9V26z M15.5,26h-1.9v-1.9h1.9V26z
			 M21.3,26h-1.9v-1.9h1.9V26z M26.1,19.3v1.9h-1.9v-1.9H26.1z M26.1,13.5v1.9h-1.9v-1.9H26.1z M23.2,23.1H5.9V5.8h17.3V23.1z"/>
	</g>
</g>
</svg>
