<svg xmlns="http://www.w3.org/2000/svg" width="28.39" height="28.39" viewBox="0 0 28.39 28.39"><defs><style>.cls-1{fill:#11809f;stroke:#11809f;stroke-width:0.15px;fill-rule:evenodd;}</style></defs><g id="Layer_2" data-name="Layer 2"><g id="Solutions_hover" data-name="Solutions hover"><g id="Menus"><g id="Standard-Menu"><g id="Left-Nav"><g id="Solutions"><g id="Solutions-icon"><path id="Page-1" class="cls-1" d="M.08,11.55H11.55V.08H.08ZM1,10.66h9.7V1H1Zm11.47,1.77V23.9l4.41,4.41H28.31V16.84L23.9,12.43Zm1.51.88h9.59l3.53,3.53h-9.6Zm-.63,10.22V13.94l3.53,3.52v9.6Zm4.41,3.9h9.71V17.72H17.72Z"/><g id="Group"><polygon id="Path" class="cls-1" points="13.34 3.1 13.96 3.73 14.59 3.1 13.96 2.48 13.34 3.1"/><polygon id="Path-2" data-name="Path" class="cls-1" points="14.66 4.42 15.28 5.05 15.91 4.42 15.28 3.8 14.66 4.42"/><polygon id="Path-3" data-name="Path" class="cls-1" points="15.98 5.75 16.6 6.37 17.23 5.75 16.6 5.12 15.98 5.75"/><polygon id="Path-4" data-name="Path" class="cls-1" points="17.3 7.07 17.93 7.69 18.55 7.07 17.93 6.44 17.3 7.07"/><polygon id="Path-5" data-name="Path" class="cls-1" points="18.62 8.39 19.25 9.01 19.87 8.39 19.25 7.76 18.62 8.39"/><polygon id="Path-6" data-name="Path" class="cls-1" points="19.94 9.71 20.57 10.33 21.19 9.71 20.57 9.08 19.94 9.71"/></g><g id="Group-Copy"><polygon id="Path-7" data-name="Path" class="cls-1" points="2.72 14.04 3.34 14.66 3.96 14.04 3.34 13.41 2.72 14.04"/><polygon id="Path-8" data-name="Path" class="cls-1" points="4.04 15.36 4.66 15.98 5.29 15.36 4.66 14.73 4.04 15.36"/><polygon id="Path-9" data-name="Path" class="cls-1" points="5.36 16.68 5.98 17.3 6.61 16.68 5.98 16.05 5.36 16.68"/><polygon id="Path-10" data-name="Path" class="cls-1" points="6.68 18 7.3 18.62 7.93 18 7.3 17.37 6.68 18"/><polygon id="Path-11" data-name="Path" class="cls-1" points="8 19.32 8.63 19.94 9.25 19.32 8.63 18.7 8 19.32"/><polygon id="Path-12" data-name="Path" class="cls-1" points="9.32 20.64 9.95 21.27 10.57 20.64 9.95 20.02 9.32 20.64"/></g></g></g></g></g></g></g></g></svg>