<svg height="476pt" viewBox="0 -22 476.43334 476" width="476pt" xmlns="http://www.w3.org/2000/svg"><path d="m421.71875 161.597656-1.640625-67.179687c-.757813-14.988281 10.394531-27.925781 25.332031-29.382813l23.019532 145.269532c.277343 18.234374-5.320313 36.070312-15.96875 50.871093l-56.351563 68.199219c-5.1875 6.277344-7.746094 14.3125-7.140625 22.429688l1.511719 20.140624-78.460938-37.371093.300781-.636719c-6.21875-30.597656 5.179688-62.101562 29.539063-81.632812l4.46875-3.589844c7.003906-5.617188 12.648437-12.742188 16.511719-20.847656l21.539062-45.222657c6.757813-14.191406 21.699219-22.613281 37.339844-21.046875zm0 0" fill="#f7caa5"/><path d="m390.480469 371.945312 8.828125 4.210938-23.609375 49.578125-108.820313-51.816406 23.621094-49.59375 21.519531 10.25zm0 0" fill="#00efd1"/><path d="m331.121094 38.175781v126.800781l-92.902344 29.960938v-126.800781zm0 0" fill="#00acea"/><path d="m238.21875 68.136719-92.898438-29.960938 92.898438-29.960937 92.902344 29.960937zm0 0" fill="#00efd1"/><path d="m238.21875 68.136719v126.800781l-92.898438-29.960938v-126.800781zm0 0" fill="#00acea"/><path d="m85.960938 371.945312 78.457031-37.371093 21.519531-10.25 23.621094 49.59375-108.820313 51.816406-23.609375-49.578125zm0 0" fill="#00efd1"/><path d="m54.71875 161.597656c15.640625-1.566406 30.582031 6.855469 37.339844 21.046875l21.539062 45.222657c3.863282 8.105468 9.507813 15.230468 16.511719 20.847656l4.46875 3.589844c24.359375 19.53125 35.761719 51.035156 29.542969 81.632812l.296875.636719-78.457031 37.371093 1.507812-20.140624c.605469-8.117188-1.953125-16.152344-7.140625-22.429688l-56.347656-68.199219c-10.652344-14.800781-16.25-32.636719-15.972657-50.871093l23.019532-145.269532c14.386718 1.40625 25.359375 13.488282 25.371094 27.941406 0 .480469-.019532.960938-.039063 1.441407zm0 0" fill="#f7caa5"/><g fill="#083863"><path d="m444.632812 57.074219c-19.160156 1.847656-33.488281 18.414062-32.546874 37.640625l1.4375 58.925781c-15.753907 1.59375-29.535157 11.28125-36.367188 25.566406l-21.535156 45.21875c-3.355469 7.011719-8.242188 13.179688-14.300782 18.050781l-4.464843 3.585938c-22.765625 18.164062-35.453125 46.132812-34.125 75.226562l-8.792969-4.1875c-3.988281-1.902343-8.761719-.207031-10.664062 3.78125l-23.617188 49.59375c-1.898438 3.988282-.207031 8.761719 3.785156 10.664063l108.820313 51.816406c1.914062.914063 4.113281 1.03125 6.113281.320313 2-.710938 3.632812-2.183594 4.542969-4.101563l23.609375-49.578125c1.898437-3.988281.207031-8.761718-3.777344-10.660156l-4.644531-2.214844-1.160157-15.5c-.464843-6.0625 1.445313-12.066406 5.328126-16.746094l56.351562-68.199218c.113281-.136719.222656-.277344.324219-.421875 11.617187-16.214844 17.738281-35.722657 17.476562-55.667969-.007812-.378906-.039062-.753906-.101562-1.128906l-23.019531-145.269532c-.65625-4.179687-4.460938-7.125-8.671876-6.714843zm-72.714843 358-94.371094-44.9375 16.738281-35.144531 94.367188 44.945312zm74.203125-158.777344-56.175782 67.980469c-6.519531 7.859375-9.734374 17.945312-8.953124 28.128906l.476562 6.390625-61.847656-29.464844c-4.394532-26.789062 6.03125-53.859375 27.253906-70.789062l4.460938-3.585938c7.9375-6.378906 14.335937-14.464843 18.730468-23.648437l21.539063-45.222656c5.320312-11.136719 17.050781-17.746094 29.332031-16.527344.648438.066406 1.296875.152344 1.9375.257812l-31.484375 66.109375c-1.898437 3.988281-.207031 8.761719 3.78125 10.664063 3.992187 1.898437 8.765625.207031 10.664063-3.785156l35.398437-74.328126c1.902344-3.988281.207031-8.765624-3.78125-10.664062-2.535156-1.207031-5.175781-2.171875-7.890625-2.890625l-1.480469-60.703125c0-.070312 0-.140625-.007812-.207031-.410157-7.875 3.832031-15.261719 10.839843-18.875l21.527344 135.84375c.09375 16.234375-4.914062 32.085937-14.320312 45.3125zm0 0"/><path d="m17.8125 266.277344 56.355469 68.199218c3.875 4.675782 5.785156 10.675782 5.324219 16.730469l-1.164063 15.515625-4.640625 2.210938c-3.988281 1.902344-5.679688 6.675781-3.78125 10.664062l23.613281 49.578125c.910157 1.917969 2.546875 3.394531 4.546875 4.101563 2 .710937 4.199219.597656 6.113282-.316406l108.820312-51.820313c3.992188-1.898437 5.683594-6.675781 3.785156-10.664063l-23.621094-49.589843c-1.898437-3.988281-6.671874-5.683594-10.660156-3.78125l-8.792968 4.1875c1.328124-29.089844-11.355469-57.058594-34.117188-75.222657l-4.476562-3.59375c-6.058594-4.871093-10.945313-11.039062-14.296876-18.050781l-21.542968-45.21875c-6.824219-14.285156-20.605469-23.976562-36.359375-25.570312l1.441406-58.957031c.023437-.566407.042969-1.136719.042969-1.703126.054687-18.597656-14.082032-34.164062-32.597656-35.902343-4.210938-.410157-8.015626 2.53125-8.675782 6.710937l-23.019531 145.269532c-.0625.375-.09375.753906-.1015625 1.128906-.2617185 19.945312 5.8593755 39.453125 17.4765625 55.667968.105469.144532.214844.285157.328125.425782zm181.082031 103.855468-94.375 44.941407-16.730469-35.136719 80.070313-38.136719 14.300781-6.8125zm-161.363281-295.007812c6.691406 3.433594 10.890625 10.332031 10.867188 17.851562 0 .367188-.015626.738282-.03125 1.105469v.140625l-1.484376 60.699219c-2.710937.71875-5.355468 1.6875-7.886718 2.890625-3.992188 1.898438-5.6875 6.671875-3.789063 10.664062l35.398438 74.328126c1.902343 3.992187 6.675781 5.683593 10.664062 3.785156 3.988281-1.902344 5.683594-6.675782 3.78125-10.664063l-31.484375-66.109375c.648438-.109375 1.300782-.195312 1.953125-.261718 12.277344-1.210938 24 5.398437 29.316407 16.53125l21.542968 45.222656c4.390625 9.183594 10.789063 17.265625 18.722656 23.644531l4.472657 3.59375c21.21875 16.929687 31.636719 44 27.246093 70.789063l-61.855468 29.460937.476562-6.398437c.777344-10.179688-2.429687-20.261719-8.949218-28.117188l-56.171876-67.988281c-9.40625-13.226563-14.417968-29.078125-14.320312-45.308594zm0 0"/><path d="m333.625 172.589844c3.316406-1.0625 5.574219-4.132813 5.59375-7.613282v-126.800781c-.019531-3.480469-2.277344-6.550781-5.59375-7.613281l-92.925781-29.960938c-1.601563-.5117182-3.320313-.5117182-4.921875 0l-92.957032 29.960938c-3.316406 1.058594-5.578124 4.132812-5.601562 7.613281v126.800781c.023438 3.480469 2.277344 6.550782 5.59375 7.613282l92.925781 29.960937c.796875.253907 1.628907.386719 2.46875.386719.84375 0 1.683594-.132812 2.484375-.386719zm-87.40625 11.359375v-109.988281l77-24.796876v109.984376zm-8-167.328125 66.835938 21.554687-66.835938 21.554688-66.835938-21.554688zm-85 32.542968 77 24.796876v109.988281l-77-24.800781zm0 0"/></g></svg>