<svg enable-background="new 0 0 64 64" height="512" viewBox="0 0 64 64" width="512" xmlns="http://www.w3.org/2000/svg"><g id="Icons"><g><g><path d="m20 30h-4c-2.761 0-5 2.239-5 5v11h14v-11c0-2.761-2.239-5-5-5z" fill="#0a5078"/><g><path d="m10 46c-2.209 0-4 1.791-4 4v10h4z" fill="#f0c8a0"/></g><g><path d="m26 46v14h4v-10c0-2.209-1.791-4-4-4z" fill="#a00028"/></g><g><path d="m10 46h16v14h-16z" fill="#c80a50"/></g><g><path d="m18 50c-1.657 0-3-1.343-3-3v-5h6v5c0 1.657-1.343 3-3 3z" fill="#d2aa82"/></g><g><path d="m23 36h-5c-1.105 0-2-.895-2-2 0 1.105-.895 2-2 2h-1v7.62c.733.839 1.798 1.38 3 1.38h4c1.202 0 2.267-.541 3-1.38z" fill="#f0c8a0"/></g></g><g><g><path d="m48 28h-4c-2.209 0-4 1.791-4 4v4h12v-4c0-2.209-1.791-4-4-4z" fill="#0a5078"/></g><g><path d="m32 56h6v4h-6z" fill="#f0c8a0"/></g><g><path d="m54 56h6v4h-6z" fill="#f0c8a0"/></g><g><path d="m38 44h16v16h-16z" fill="#00a0c8"/></g><g><path d="m37 53h-8c-2.209 0-4 1.791-4 4v3h16v-3c0-2.209-1.791-4-4-4z" fill="#0082aa"/></g><g><path d="m46 48c-1.657 0-3-1.343-3-3v-5h6v5c0 1.657-1.343 3-3 3z" fill="#d2aa82"/></g><g><path d="m40 38v-4c-1.105 0-2 .895-2 2 0 1.105.895 2 2 2z" fill="#d2aa82"/></g><g><path d="m52 38v-4c1.105 0 2 .895 2 2 0 1.105-.895 2-2 2z" fill="#d2aa82"/></g><g><path d="m32 56h6v-12c-3.314 0-6 2.686-6 6z" fill="#0082aa"/></g><g><path d="m60 56h-6v-12c3.314 0 6 2.686 6 6z" fill="#0082aa"/></g><g><path d="m50 32h-8c-.552 0-1 .448-1 1v2c0 .552-.448 1-1 1v3c0 2.209 1.791 4 4 4h4c2.209 0 4-1.791 4-4v-3c-.552 0-1-.448-1-1v-2c0-.552-.448-1-1-1z" fill="#f0c8a0"/></g></g><g><g><path d="m34 38h-4c-2.209 0-4 1.791-4 4v4h12v-4c0-2.209-1.791-4-4-4z" fill="#0a5078"/></g><g><path d="m26 48v-4c-1.105 0-2 .895-2 2 0 1.105.895 2 2 2z" fill="#d2aa82"/></g><g><path d="m38 48v-4c1.105 0 2 .895 2 2 0 1.105-.895 2-2 2z" fill="#d2aa82"/></g><g><path d="m38 44h-6c-1.105 0-2-.895-2-2 0 1.105-.895 2-2 2h-2v5c0 2.209 1.791 4 4 4h4c2.209 0 4-1.791 4-4z" fill="#f0c8a0"/></g></g><g><path d="m36 53h-8c-2.209 0-4 1.791-4 4v3h16v-3c0-2.209-1.791-4-4-4z" fill="#0a5078"/></g><g><path d="m32 56c-1.105 0-2-.895-2-2v-1h4v1c0 1.105-.895 2-2 2z" fill="#d2aa82"/></g><g><g><circle cx="32" cy="18" fill="#0a5078" r="12"/></g><g><circle cx="32" cy="18" fill="#f0f0f0" r="10"/></g><path d="m38 17h-5v-5c0-.552-.447-1-1-1s-1 .448-1 1v6c0 .552.447 1 1 1h6c.553 0 1-.448 1-1s-.447-1-1-1z" fill="#0a5078"/><g><circle cx="32" cy="18" fill="#c80a50" r="2"/></g><g><g><path d="m32 8c-.338 0-.671.018-1 .05v.95c0 .552.448 1 1 1s1-.448 1-1v-.95c-.329-.032-.662-.05-1-.05z" fill="#00a0c8"/></g><g><path d="m32 26c-.552 0-1 .448-1 1v.95c.329.033.662.05 1 .05s.671-.018 1-.05v-.95c0-.552-.448-1-1-1z" fill="#00a0c8"/></g><g><path d="m22.05 19h.95c.552 0 1-.448 1-1s-.448-1-1-1h-.95c-.032.329-.05.662-.05 1s.018.671.05 1z" fill="#00a0c8"/></g><g><path d="m40 18c0 .552.448 1 1 1h.95c.033-.329.05-.662.05-1s-.018-.671-.05-1h-.95c-.552 0-1 .448-1 1z" fill="#00a0c8"/></g></g></g></g></g></svg>