<svg id="Capa_1" enable-background="new 0 0 512.023 512.023" height="512" viewBox="0 0 512.023 512.023" width="512" xmlns="http://www.w3.org/2000/svg"><g><g><g><g><path clip-rule="evenodd" d="m255.999 52.557 159.983 81.107.03 136.189c.01 43.857-17.323 84.199-45.463 117.297-29.628 34.848-70.681 60.883-114.534 74.036-43.851-13.153-84.909-39.183-114.541-74.035-28.143-33.102-45.463-73.447-45.463-117.306v-136.222zm9.709-39.924c-5.746-3.309-12.984-3.599-19.189-.114l-179.177 90.789c-6.696 3.235-11.33 10.204-11.33 18.281v148.256c0 54.03 21.125 103.386 54.988 143.216 35.643 41.922 85.505 73.271 139.495 88.158 3.348 1.001 6.996 1.106 10.611.118 54.152-14.84 104.181-46.244 139.918-88.276 33.863-39.831 54.988-89.187 54.988-143.216l-.033-148.256c-.007-7.117-3.702-14.014-10.233-17.682z" fill="#9de3d1" fill-rule="evenodd"/></g><g><path clip-rule="evenodd" d="m415.982 133.664-159.983-81.107-159.988 81.066v136.222c0 43.859 17.319 84.204 45.463 117.306 29.632 34.852 70.69 60.883 114.541 74.035 43.853-13.152 84.906-39.188 114.534-74.036 28.14-33.098 45.473-73.44 45.463-117.297zm-159.97 13.208c60.751 0 110 49.249 110 110s-49.249 110-110 110-110-49.249-110-110 49.249-110 110-110z" fill="#fff" fill-rule="evenodd"/></g><g><path clip-rule="evenodd" d="m366.012 256.872c0-60.751-49.249-110-110-110s-110 49.249-110 110 49.249 110 110 110 110-49.249 110-110zm-122.5-60h25c5.5 0 10 4.499 10 9.999v27.5h27.5c5.5 0 9.999 4.499 9.999 10v25c0 5.5-4.499 10-9.999 10h-27.5v27.5c0 5.5-4.499 9.999-10 9.999h-25c-5.5 0-10-4.499-10-9.999v-27.5h-27.5c-5.5 0-9.999-4.499-9.999-10v-25c0-5.5 4.499-10 9.999-10h27.5v-27.5c0-5.5 4.499-9.999 10-9.999z" fill="#ff5d7d" fill-rule="evenodd"/></g><g><path clip-rule="evenodd" d="m278.512 234.372v-27.5c0-5.5-4.499-9.999-10-9.999h-25c-5.5 0-10 4.499-10 9.999v27.5h-27.5c-5.5 0-9.999 4.499-9.999 10v25c0 5.5 4.499 10 9.999 10h27.5v27.5c0 5.5 4.499 9.999 10 9.999h25c5.5 0 10-4.499 10-9.999v-27.5h27.5c5.5 0 9.999-4.499 9.999-10v-25c0-5.5-4.499-10-9.999-10z" fill="#fff" fill-rule="evenodd"/></g></g><g><g><path d="m255.995 512.023c-2.784 0-5.562-.397-8.255-1.191-56.241-15.528-107.502-47.947-144.358-91.294-37.532-44.144-57.37-95.906-57.37-149.693v-148.256c0-11.556 6.624-22.236 16.885-27.239l178.93-90.664c8.997-4.962 19.655-4.911 28.617.137l179.824 91.165c.126.064.251.131.375.2 9.449 5.307 15.326 15.419 15.337 26.391l.032 148.264c0 53.788-19.838 105.55-57.369 149.695-36.982 43.498-88.44 75.973-144.894 91.442-2.545.695-5.152 1.043-7.754 1.043zm.014-491.997c-1.578 0-3.154.404-4.594 1.212-.124.07-.25.137-.376.201l-179.177 90.79c-.057.028-.113.057-.17.084-3.451 1.667-5.68 5.308-5.68 9.276v148.256c0 48.976 18.191 96.259 52.607 136.738 34.305 40.347 82.083 70.532 134.534 84.995.069.02.138.039.206.06 1.68.502 3.4.521 5.11.052 52.608-14.416 100.532-44.641 134.936-85.106 34.416-40.479 52.606-87.762 52.606-136.738l-.032-148.254c-.004-3.691-1.907-7.08-4.979-8.878l-179.814-91.16c-.158-.081-.314-.165-.469-.253-1.473-.85-3.091-1.275-4.708-1.275zm-188.667 83.282h.01z"/></g><g><path d="m256.014 471.186c-.968 0-1.936-.141-2.873-.422-46.484-13.942-88.848-41.336-119.287-77.136-31.3-36.813-47.844-79.617-47.844-123.784v-136.221c0-3.769 2.119-7.217 5.48-8.92l39.85-20.192c4.926-2.497 10.944-.527 13.44 4.4s.526 10.944-4.4 13.44l-34.37 17.415v130.078c0 39.356 14.897 77.68 43.082 110.829 27.343 32.158 65.22 56.954 106.922 70.053 41.696-13.096 79.571-37.892 106.916-70.054 28.193-33.16 43.091-71.48 43.082-110.817l-.028-130.049-149.987-76.038-35.333 17.904c-4.925 2.495-10.944.526-13.44-4.4-2.496-4.927-.526-10.944 4.4-13.44l39.855-20.195c2.843-1.44 6.2-1.439 9.042.001l159.983 81.107c3.36 1.704 5.477 5.15 5.478 8.917l.03 136.188c.01 44.149-16.534 86.951-47.844 123.777-30.44 35.803-72.801 63.197-119.28 77.137-.938.282-1.906.422-2.874.422z"/></g><g><path d="m268.512 326.871h-25c-11.028 0-20-8.972-20-19.999v-17.5h-17.5c-11.028 0-20-8.972-20-20v-25c0-11.028 8.972-20 19.999-20h17.5v-17.5c0-11.027 8.972-19.999 20-19.999h25c11.028 0 20 8.972 20 19.999v17.5h17.501c11.027 0 19.999 8.972 19.999 20v25c0 11.028-8.972 20-19.999 20h-17.5v17.5c0 11.027-8.972 19.999-20 19.999zm-35-57.499c5.523 0 10 4.478 10 10v27.5l25-.001v-27.499c0-5.522 4.477-10 10-10h27.5l-.001-25h-27.5c-5.523 0-10-4.477-10-10v-27.5l-25 .001v27.499c0 5.523-4.477 10-10 10h-27.5l.001 25.002z"/></g><g><path d="m256.008 376.814c-30.729 0-61.458-11.697-84.852-35.091-46.787-46.787-46.787-122.917 0-169.705 46.788-46.787 122.916-46.787 169.705 0 46.787 46.788 46.787 122.917 0 169.705-23.395 23.394-54.124 35.091-84.853 35.091zm-70.71-190.653c-38.99 38.99-38.99 102.431 0 141.42 38.99 38.99 102.431 38.99 141.419 0 38.989-38.989 38.989-102.43 0-141.42s-102.43-38.99-141.419 0z"/></g><g><path d="m176.009 103.096c-3.231 0-6.403-1.563-8.33-4.454-3.063-4.595-1.822-10.804 2.773-13.867 4.593-3.063 10.806-1.824 13.87 2.771 3.063 4.595 1.825 10.802-2.771 13.865l-.006.004c-1.703 1.137-3.63 1.681-5.536 1.681z"/></g></g></g></g></svg>