<?xml version="1.0" encoding="iso-8859-1"?>
<!-- Generator: Adobe Illustrator 19.0.0, SVG Export Plug-In . SVG Version: 6.00 Build 0)  -->
<svg version="1.1" id="Capa_1" xmlns="http://www.w3.org/2000/svg" xmlns:xlink="http://www.w3.org/1999/xlink" x="0px" y="0px"
	 viewBox="0 0 432 432" style="enable-background:new 0 0 432 432;" xml:space="preserve">
<g>
	<path style="fill:#111828;" d="M413.2,95.4c-11.6-11.6-27.6-18.8-45.2-18.8h-69.2v-22c0-9.2-3.6-17.6-9.6-23.6l-0.4-0.4
		c-6.4-6.4-14.8-10-24-10h-97.2c-9.6,0-18,4-24,10l0,0c-6.4,6.4-10,14.8-10,24v22H64c-17.6,0-33.6,7.2-45.2,18.8S0,123,0,140.6
		v206.8C0,365,7.2,381,18.8,392.6s27.6,18.8,45.2,18.8h304c17.6,0,33.6-7.2,45.2-18.8C424.8,381,432,365,432,347.4V140.6
		C432,123,424.8,107,413.2,95.4z M149.2,54.6c0-5.2,2-9.6,5.2-12.8l0,0l0,0c3.2-3.2,8-5.2,12.8-5.2H264c5.2,0,9.6,2,12.8,5.2
		l0.4,0.4c3.2,3.2,5.2,7.6,5.2,12.4v22h-16v-7.2c0-5.6-2.4-10.8-6.8-14.8l-0.4-0.4c-4-3.6-9.6-6-16-6H188c-6,0-11.6,2.4-16,6l0,0
		c-4.4,4-7.2,9.2-7.2,15.2v7.2h-16v-22H149.2z M251.2,76.6h-70.4v-7.2c0-1.2,0.8-2.4,1.6-3.2l0,0l0,0c1.2-1.2,3.2-2,5.6-2h56
		c2,0,4,0.8,5.6,2l0.4,0.4c0.8,0.8,1.6,2,1.6,3.2v6.8H251.2z M416.4,347.4c0,13.2-5.6,25.2-14,34c-8.8,8.8-20.8,14-34,14H64
		c-13.2,0-25.2-5.6-34-14c-8.8-8.8-14-20.8-14-34V140.6c0-13.2,5.6-25.2,14-34c8.8-8.8,20.8-14,34-14h77.6h31.6h86h31.6H368
		c13.2,0,25.2,5.6,34,14c8.8,8.8,14,20.8,14,34v206.8H416.4z"/>
	<path style="fill:#111828;" d="M310.4,256.6c-2-2-5.2-2.8-8-2l-30,9.2l-35.6-37.6l78-43.2c0.8-0.4,1.6-0.8,2.4-1.6
		c3.2-3.2,3.2-8,0-11.2L296,147.8c-2-2-5.2-2.8-8-2l-98,30l-33.2-35.2l0,0l0,0l-0.4-0.8l0,0l0,0c-6-6-14-8.8-22-8.8
		s-15.6,2.8-22,8.8l-0.8,0.8l-0.8,0.8c-5.6,6-8.8,14-8.8,22s2.8,16,8.8,22l0,0l0,0c0.4,0.4,0.4,0.4,0.8,0.8l35.2,33.2l-29.6,98
		c-0.8,2.8-0.4,6,2,8l21.6,21.6l0,0c0.4,0.4,1.2,0.8,1.6,1.2c4,2,8.8,0.8,10.8-3.2l43.6-78.8l37.6,35.6l-8.8,29.6
		c-0.8,2.8-0.4,6,2,8l16.8,16.8l0,0c0.4,0.4,1.2,0.8,1.6,1.2c4,2,8.8,0.8,10.8-3.2l21.2-38l0,0v-0.4l2.8-6l5.6-2.8
		c0.4,0,0.4-0.4,0.8-0.4l37.2-20.8c0.8-0.4,1.6-0.8,2.4-1.6c3.2-3.2,3.2-8,0-11.2L310.4,256.6z M280,293l-8,4
		c-1.6,0.8-2.8,2-3.6,3.6l0,0l-4,8l-16,28.8l-6-6l9.2-30c0.8-3.2,0-6.4-2.4-8.4l-48.4-45.6c-3.2-3.2-8.4-2.8-11.2,0.4
		c-0.4,0.4-0.8,1.2-1.2,2l-43.6,77.6L134,316.6l30-98c0.8-3.2,0-6.4-2.4-8.4l-38.4-36.4l-0.4-0.4l0,0c-2.8-2.8-4.4-6.8-4.4-10.4
		c0-4,1.6-8,4.4-11.2c0,0,0,0,0.4-0.4s0,0,0.4-0.4c3.2-2.8,7.2-4.4,11.2-4.4s7.6,1.2,10.4,4l0.4,0.4l0,0l36.8,38.8
		c2,2.4,5.2,3.2,8,2l0,0l98.4-29.6l10.8,10.8l-78.8,44c-4,2-5.2,6.8-3.2,10.8c0.4,0.4,0.8,1.2,1.2,1.6l0,0l46,48.8
		c2,2.4,5.2,3.2,8,2l0,0l30-9.2l6,6L280,293z"/>
</g>
<g>
	<path style="fill:#1A93A8;" d="M119.6,324.6c-2-2-2.8-5.2-2-8l29.6-98L112,185.4l-0.8-0.8l0,0l0,0c-6-6-8.8-14-8.8-22
		s2.8-15.6,8.8-22l0.8-0.8l0.8-0.8c6-5.6,14-8.8,22-8.8s16,2.8,22,8.8l0,0l0.4,0.4l0,0l33.2,35.2l98-29.6c2.8-0.8,6,0,8,2l21.6,21.6
		c3.2,3.2,3.2,8,0,11.2c-0.8,0.8-1.6,1.2-2.4,1.6l-78.4,44.4l35.6,37.6l30-9.2c2.8-0.8,6,0,8,2l16.8,16.8c3.2,3.2,3.2,8,0,11.2
		c-0.8,0.8-1.6,1.2-2.4,1.6L288,306.6l-0.8,0.4l-5.6,2.8l-3.2,6v0.4l-21.2,38c-2,4-6.8,5.2-10.8,3.2c-0.8-0.4-1.2-0.8-1.6-1.2
		L228,339c-2-2-2.8-5.2-2-8l8.8-29.6l-37.6-35.6l-43.6,78.8c-2,4-6.8,5.2-10.8,3.2c-0.8-0.4-1.2-0.8-1.6-1.2L119.6,324.6z
		 M15.6,140.6v206.8c0,13.2,5.6,25.2,14,34c8.8,8.8,20.8,14,34,14H368c13.2,0,25.2-5.6,34-14c8.8-8.8,14-20.8,14-34V140.6
		c0-13.2-5.6-25.2-14-34c-8.8-8.8-20.8-14-34-14h-77.2h-31.6h-86h-31.6H64c-13.2,0-25.2,5.6-34,14C21.2,115.4,15.6,127.4,15.6,140.6
		z"/>
	<g>
		<path style="fill:#E9F6FB;" d="M161.2,210.2c2.4,2,3.6,5.2,2.4,8.4L134,317l10.8,10.8l43.2-78c0.4-0.8,0.8-1.2,1.2-2
			c3.2-3.2,8-3.2,11.2-0.4l48.4,45.6c2.4,2,3.6,5.2,2.4,8.4l-9.2,30l6,6l16-28.8l4-8c0.8-1.6,2-2.8,3.6-3.6l8-4l28.8-16l-6-6
			l-30,9.2c-2.8,0.8-6,0-8-2l-45.6-48.8c-0.4-0.4-0.8-0.8-1.2-1.6c-2-4-0.8-8.8,3.2-10.8l78.4-43.6l-10.8-10.8L190,192.2
			c-2.8,0.8-6,0-8-2l-36.8-38.8l-0.4-0.4c-2.8-2.8-6.8-4-10.4-4c-4,0-8,1.6-11.2,4.4c0,0,0,0-0.4,0.4s0,0-0.4,0.4
			c-2.8,3.2-4.4,7.2-4.4,11.2s1.2,7.6,4.4,10.4l0,0l0.4,0.4L161.2,210.2z"/>
		<path style="fill:#E9F6FB;" d="M260.4,54.6c4,4,6.8,9.2,6.8,14.8v7.2h16v-22c0-10-8.4-18.4-18.4-18.4h-97.2c-5.2,0-9.6,2-12.8,5.2
			c-3.2,3.6-5.2,7.6-5.2,12.8v22h16V69c0-6,2.8-11.6,7.2-15.2c4-3.6,9.6-6,16-6H244c6,0,11.6,2.4,16,6L260.4,54.6z"/>
	</g>
</g>
<g>
</g>
<g>
</g>
<g>
</g>
<g>
</g>
<g>
</g>
<g>
</g>
<g>
</g>
<g>
</g>
<g>
</g>
<g>
</g>
<g>
</g>
<g>
</g>
<g>
</g>
<g>
</g>
<g>
</g>
</svg>
