<svg id="Capa_1" enable-background="new 0 0 512 512" height="512" viewBox="0 0 512 512" width="512" xmlns="http://www.w3.org/2000/svg"><g id="XMLID_197_"><g id="XMLID_247_"><g id="XMLID_1799_"><path id="XMLID_1833_" d="m275.986 10c-65.108 0-117.888 52.78-117.888 117.888v192.908h235.777v-192.908c-.001-65.108-52.781-117.888-117.889-117.888z" fill="#868eaf"/></g><g id="XMLID_1796_"><path id="XMLID_1820_" d="m245.327 217.659v35.712h-.002c-84.686 0-153.338 68.652-153.338 153.338v95.291h368v-95.291c0-84.686-68.652-153.338-153.338-153.338h-.003v-35.712z" fill="#a0c8ff"/></g><g id="XMLID_1795_"><path d="m245.327 217.659v35.712l30.659 30.659 30.659-30.659v-35.712z" fill="#f4c6af"/></g><g id="XMLID_2862_"><path d="m344.196 112.766v41.093c0 37.671-30.539 68.21-68.21 68.21-37.671 0-68.21-30.539-68.21-68.21v-41.093h50.072c11.416 0 22.163-5.383 29-14.525 12.053 9.412 26.906 14.525 42.198 14.525z" fill="#f4c6af"/></g><g id="XMLID_2836_"><g id="XMLID_2837_"><path id="XMLID_1816_" d="m45.998 258.443c-34.437 19.882-46.236 63.917-26.354 98.354l63.041 109.19c19.882 34.437 63.917 46.236 98.354 26.354 34.437-19.882 46.236-63.917 26.354-98.354l-63.041-109.19c-19.883-34.438-63.917-46.237-98.354-26.354z" fill="#ff7a7a"/></g><g id="XMLID_2869_"><circle cx="81.998" cy="320.796" fill="#ffd0c6" r="72"/></g></g><g id="XMLID_2856_"><path id="XMLID_253_" d="m132.328 429.844h-66.012c-19.922 0-36.073 16.15-36.073 36.073 0 19.922 16.15 36.073 36.073 36.073h66.013v-72.146z" fill="#a0c8ff"/></g><g id="XMLID_2849_"><path d="m160.251 501.999h-27.923v-72.154h27.923c19.925 0 36.077 16.152 36.077 36.077 0 19.924-16.152 36.077-36.077 36.077z" fill="#f4c6af"/></g><g id="XMLID_2846_"><g id="XMLID_2845_"><path id="XMLID_1806_" d="m461.986 332h-152c-22.091 0-40 17.909-40 40v130h232v-130c0-22.091-17.909-40-40-40z" fill="#f8f8f8"/></g><g id="XMLID_66_"><circle id="XMLID_1800_" cx="385.986" cy="417" fill="#ff7a7a" r="24"/></g></g></g><g id="XMLID_1835_"><path id="XMLID_1836_" d="m295 181.625c3.905-3.905 3.905-10.237 0-14.143-3.906-3.904-10.236-3.904-14.143 0-2.549 2.549-6.695 2.549-9.244 0-3.906-3.904-10.236-3.904-14.143 0-3.905 3.905-3.905 10.237 0 14.143 5.174 5.173 11.969 7.76 18.765 7.76s13.592-2.587 18.765-7.76z"/><path id="XMLID_1837_" d="m82.842 349.193c1.641.439 3.306.657 4.96.657 3.3 0 6.558-.866 9.492-2.561 4.405-2.544 7.557-6.65 8.873-11.564 1.43-5.334-1.736-10.817-7.071-12.247-5.037-1.352-10.208 1.399-11.971 6.199-5.046-.872-10.005 2.231-11.354 7.269-1.43 5.334 1.736 10.818 7.071 12.247z"/><path id="XMLID_1841_" d="m461.986 322h-15.663c-11.155-18.362-25.653-34.055-42.448-46.489v-147.622c0-70.518-57.372-127.889-127.889-127.889s-127.889 57.371-127.889 127.889v144.394c-24.387-33.276-70.565-43.592-107.1-22.5-39.156 22.608-52.621 72.857-30.013 112.013l35.982 62.323c-15.763 7.326-26.724 23.302-26.724 41.798 0 25.404 20.668 46.072 46.073 46.072l93.936.01c15.294 0 28.864-7.497 37.25-19.001 14.526-12.072 24.481-28.897 28.07-47.558 3.718-19.334.338-39.383-9.518-56.453l-56.201-97.342c23.522-17.476 52.003-27.369 81.397-28.208l27.665 27.665c1.953 1.952 4.512 2.929 7.071 2.929s5.118-.977 7.071-2.929l27.662-27.662c44.395 1.263 85.53 23.108 111.551 58.561h-112.283c-27.57 0-50 22.43-50 50v130c0 5.522 4.478 10 10 10h70.999c5.522 0 10-4.478 10-10s-4.478-10-10-10h-60.999v-120.001c0-16.542 13.458-30 30-30h152c16.542 0 30 13.458 30 30v120h-60.997c-5.522 0-10 4.478-10 10s4.478 10 10 10h70.997c5.522 0 10-4.478 10-10v-130c0-27.57-22.43-50-50-50zm-186-302c59.49 0 107.889 48.398 107.889 107.889v134.937c-20.514-11.014-43.401-17.672-67.229-19.135v-23.047c22.5-13.749 37.551-38.541 37.551-66.784v-41.093c0-5.522-4.478-10-10-10h-22.664c-9.009 0-17.417-4.103-22.985-10.953 3.424-7.123 5.345-15.1 5.345-23.517 0-5.522-4.478-10-10-10s-10 4.478-10 10c0 19.007-15.463 34.47-34.47 34.47h-41.646c-5.522 0-10 4.478-10 10v41.093c0 28.243 15.051 53.035 37.551 66.784v23.04c-23.595 1.452-46.547 8.02-67.229 19.107v-134.902c-.002-59.491 48.397-107.889 107.887-107.889zm-58.21 133.859v-31.093h31.646c14.279 0 27.284-5.53 37.008-14.551 9.181 9.182 21.753 14.551 35.103 14.551h12.664v31.093c0 32.097-26.113 58.21-58.21 58.21s-58.211-26.113-58.211-58.21zm-166.778 113.244c29.608-17.093 67.6-6.912 84.694 22.693 17.093 29.606 6.912 67.601-22.694 84.694-29.611 17.093-67.601 6.911-84.693-22.694-17.094-29.607-6.914-67.6 22.693-84.693zm-10.755 198.814c0-14.377 11.696-26.073 26.073-26.073h56.013v52.146h-56.013c-14.377-.001-26.073-11.697-26.073-26.073zm120.008 26.082h-17.923v-52.155h17.923c14.379 0 26.077 11.698 26.077 26.078.001 14.379-11.698 26.077-26.077 26.077zm43.3-41.836c-6.451-17.67-23.425-30.319-43.3-30.319h-92.66l-12.49-21.633c8.665 3.004 17.809 4.57 27.034 4.57 13.901 0 27.982-3.534 40.861-10.97 21.432-12.374 35.145-33.034 39.481-55.619l36.254 62.794c9.177 15.893 10.458 34.644 4.82 51.177zm72.435-180.276-20.659-20.659v-19.948c6.586 1.806 13.508 2.79 20.659 2.79s14.073-.984 20.659-2.79v19.948z"/><path id="XMLID_1862_" d="m385.986 383c-18.748 0-34 15.252-34 34s15.252 34 34 34 34-15.252 34-34-15.252-34-34-34zm0 48c-7.72 0-14-6.28-14-14s6.28-14 14-14 14 6.28 14 14-6.28 14-14 14z"/><path id="XMLID_1863_" d="m385.986 492c-2.63 0-5.21 1.069-7.07 2.93s-2.93 4.43-2.93 7.07c0 2.63 1.069 5.21 2.93 7.069 1.86 1.86 4.44 2.931 7.07 2.931s5.21-1.07 7.069-2.931c1.86-1.859 2.931-4.439 2.931-7.069s-1.07-5.21-2.931-7.07c-1.859-1.861-4.439-2.93-7.069-2.93z"/></g></g></svg>