<svg id="Layer_1_1_" enable-background="new 0 0 64 64" height="512" viewBox="0 0 64 64" width="512" xmlns="http://www.w3.org/2000/svg"><circle cx="52" cy="20" fill="#eaeaea" r="9"/><path d="m57 18h-3v-3h-4v3h-3v4h3v3h4v-3h3z" fill="#ff8088"/><circle cx="12" cy="20" fill="#a7dbfc" r="9"/><path d="m9 19h6v5h-6z" fill="#eaeaea"/><path d="m12 15-5 4h10z" fill="#ff8088"/><circle cx="32" cy="11" fill="#ffe990" r="8"/><g fill="#ffd6a8"><path d="m24.572 51.3c-.001-.002-3.624-5.12-3.624-5.12-.351-.496-.921-.791-1.529-.791-1.392 0-2.298 1.465-1.675 2.711l1.411 2.9-4.201-1.402-2.8-5.598-.71-2.841c-.17-.681-.782-1.159-1.484-1.159-.945 0-1.664.849-1.509 1.781l.658 3.95-2.632-3.071c-.622-.725-1.687-.872-2.482-.342-.882.588-1.107 1.786-.5 2.654l5.753 8.219c.092.132.2.252.321.358 1.32 1.155 2.641 2.311 3.961 3.466 1.416 1.239 3.985 2.703 3.833 4.817l8.791.168c-.216-4.233 1.076-6.959-1.582-10.7z"/><path d="m60.313 42.317c-.795-.53-1.86-.383-2.482.342l-2.632 3.071.658-3.95c.156-.931-.563-1.78-1.508-1.78-.702 0-1.314.478-1.484 1.159l-.711 2.841-2.799 5.598-4.201 1.402 1.411-2.9c.623-1.245-.283-2.711-1.675-2.711-.608 0-1.178.295-1.529.791 0 0-3.622 5.119-3.624 5.12-2.658 3.741-1.367 6.467-1.583 10.7l8.79-.168c-.152-2.114 2.417-3.578 3.833-4.817 1.32-1.155 2.641-2.311 3.961-3.466.121-.106.229-.226.321-.358l5.753-8.219c.609-.869.383-2.067-.499-2.655z"/><circle cx="32" cy="28" r="5"/></g><path d="m36.974 27.738c-.139-2.637-2.302-4.738-4.974-4.738s-4.835 2.101-4.974 4.738c1.368-1.083 3.091-1.738 4.974-1.738s3.606.655 4.974 1.738z" fill="#999"/><path d="m39 46h-14v-7c0-3.314 2.686-6 6-6h2c3.314 0 6 2.686 6 6z" fill="#eaeaea"/><path d="m32 33-2 6 2 3 2-3z" fill="#a7dbfc"/><path d="m42 20c0 5.514 4.486 10 10 10s10-4.486 10-10-4.486-10-10-10-10 4.486-10 10zm18 0c0 4.411-3.589 8-8 8s-8-3.589-8-8 3.589-8 8-8 8 3.589 8 8z"/><path d="m12 30c5.514 0 10-4.486 10-10s-4.486-10-10-10-10 4.486-10 10 4.486 10 10 10zm0-18c4.411 0 8 3.589 8 8s-3.589 8-8 8-8-3.589-8-8 3.589-8 8-8z"/><path d="m8 20v4c0 .552.447 1 1 1h6c.553 0 1-.448 1-1v-4h1c.425 0 .803-.268.943-.669s.013-.847-.318-1.112l-5-4c-.365-.292-.885-.292-1.25 0l-5 4c-.331.265-.459.711-.318 1.112s.518.669.943.669zm6 3h-4v-3h4zm-2-6.719 2.149 1.719h-4.298z"/><path d="m32 14c-.552 0-1-.449-1-1h-2c0 1.302.839 2.402 2 2.816v1.184h2v-1.184c1.161-.414 2-1.514 2-2.816 0-1.654-1.346-3-3-3-.552 0-1-.449-1-1s.448-1 1-1 1 .449 1 1h2c0-1.302-.839-2.402-2-2.816v-1.184h-2v1.184c-1.161.414-2 1.514-2 2.816 0 1.654 1.346 3 3 3 .552 0 1 .449 1 1s-.448 1-1 1z"/><path d="m32 20c4.963 0 9-4.038 9-9s-4.037-9-9-9-9 4.038-9 9 4.037 9 9 9zm0-16c3.859 0 7 3.14 7 7s-3.141 7-7 7-7-3.14-7-7 3.141-7 7-7z"/><path d="m49 15v2h-2c-.553 0-1 .448-1 1v4c0 .552.447 1 1 1h2v2c0 .552.447 1 1 1h4c.553 0 1-.448 1-1v-2h2c.553 0 1-.448 1-1v-4c0-.552-.447-1-1-1h-2v-2c0-.552-.447-1-1-1h-4c-.553 0-1 .448-1 1zm2 3v-2h2v2c0 .552.447 1 1 1h2v2h-2c-.553 0-1 .448-1 1v2h-2v-2c0-.552-.447-1-1-1h-2v-2h2c.553 0 1-.448 1-1z"/><path d="m61.95 43.355c-.145-.771-.584-1.435-1.236-1.87-1.215-.81-2.848-.583-3.796.523l-.297.346.068-.41c.122-.735-.084-1.482-.565-2.051-.481-.567-1.185-.893-1.93-.893-1.162 0-2.171.788-2.454 1.917l-.684 2.734-2.565 5.13-1.636.546.451-.78c.448-.897.401-1.942-.127-2.795-.527-.853-1.44-1.362-2.443-1.362-.931 0-1.807.454-2.346 1.213-3.466 4.898-3.623 5.12-3.622 5.12 0 0 0 0 0-.001-2.124 2.989-1.968 6.421-1.817 9.739.023.524.048 1.047.062 1.567l2-.055c-.015-.531-.039-1.066-.063-1.603-.142-3.118-.275-6.062 1.452-8.493l3.621-5.119c.164-.231.431-.369.714-.369.439 0 .666.29.743.414.076.125.234.457.066.796l-2.143 3.706c-.263.456-.403.975-.403 1.502v1.193h2v-1.193c0-.175.047-.349.135-.5l.212-.368 4.516-1.507.032.016.016-.032 2.725-.91c.475-.178.898-.475 1.224-.856l4.576-5.338c.293-.341.795-.41 1.169-.162.201.134.336.338.38.575.045.237-.007.476-.146.674l-5.754 8.221c-.045.064-.099.124-.159.177l-3.961 3.466c-.265.231-.571.47-.893.721-1.532 1.198-3.44 2.689-3.279 4.921l1.994-.144c-.084-1.168 1.298-2.249 2.518-3.202.352-.275.687-.538.977-.792l3.963-3.467c.184-.161.346-.342.48-.536l5.753-8.218c.449-.643.617-1.421.472-2.191zm-7.846 1.936-1.764 2.059c-.107.126-.248.224-.371.271l-.793.265 1.719-3.438c.032-.065.058-.134.075-.205l.71-2.84c.059-.237.271-.403.514-.403.214 0 .345.117.404.187s.153.219.118.43z"/><path d="m8.274 53.762c.136.196.298.377.483.54l3.961 3.466c.29.254.625.517.977.792 1.22.953 2.602 2.033 2.518 3.202l1.994.144c.161-2.231-1.747-3.723-3.279-4.921-.321-.25-.628-.49-.893-.721l-3.959-3.464c-.062-.055-.116-.115-.162-.181l-5.753-8.219c-.139-.198-.19-.437-.146-.673.044-.237.179-.441.38-.575.375-.249.877-.179 1.169.161l4.574 5.337c.327.384.751.681 1.26.871l2.691.898.016.031.031-.016 4.516 1.507.213.368c.088.152.135.325.135.5v1.191h2v-1.193c0-.526-.14-1.045-.402-1.501l-2.114-3.652c-.196-.393-.038-.725.038-.85.077-.125.304-.414.743-.414.283 0 .55.138.713.369l3.624 5.122c1.726 2.428 1.592 5.373 1.45 8.49-.024.537-.049 1.072-.063 1.603l2 .055c.014-.52.038-1.042.062-1.567.15-3.318.307-6.75-1.801-9.715-.009-.013-.009-.013-3.64-5.144-.538-.759-1.414-1.213-2.345-1.213-1.003 0-1.916.509-2.443 1.362-.528.853-.575 1.898-.099 2.849l.42.726-1.634-.545-2.565-5.13-.684-2.735c-.283-1.129-1.292-1.917-2.454-1.917-.745 0-1.448.326-1.93.894-.481.569-.688 1.316-.565 2.052l.068.409-.297-.346c-.948-1.106-2.58-1.333-3.796-.523-.652.435-1.092 1.099-1.236 1.87s.023 1.548.473 2.19zm1.127-12.575c.06-.07.191-.187.405-.187.243 0 .455.166.515.401l.71 2.841c.018.071.043.14.075.205l1.719 3.439-.759-.253c-.157-.059-.298-.157-.407-.285l-1.763-2.057-.612-3.674c-.036-.211.059-.36.117-.43z"/><path d="m25 47h14c.553 0 1-.448 1-1v-7c0-2.849-1.714-5.302-4.162-6.393 1.32-1.102 2.162-2.757 2.162-4.607 0-3.309-2.691-6-6-6s-6 2.691-6 6c0 1.85.842 3.505 2.162 4.607-2.448 1.091-4.162 3.544-4.162 6.393v7c0 .552.447 1 1 1zm7-23c1.291 0 2.429.625 3.161 1.577-1.001-.377-2.064-.577-3.161-.577s-2.16.2-3.161.577c.732-.952 1.87-1.577 3.161-1.577zm-3.973 4.268c1.178-.817 2.536-1.268 3.973-1.268s2.795.451 3.973 1.268c-.141 2.079-1.859 3.732-3.973 3.732s-3.832-1.653-3.973-3.732zm4.869 10.584-.896 1.345-.896-1.345.896-2.69zm-6.896.148c0-2.62 2.032-4.752 4.599-4.96l-1.548 4.643c-.098.293-.055.614.116.871l2 3c.187.279.499.446.833.446s.646-.167.832-.445l2-3c.171-.257.214-.578.116-.871l-1.548-4.643c2.568.207 4.6 2.339 4.6 4.959v6h-12z"/></svg>